<svg width="229" height="172" viewBox="0 0 229 172" fill="none" xmlns="http://www.w3.org/2000/svg">
<path d="M111.874 115.942L98.2422 171.235H108.888L122.956 120.057L113.451 117.338" fill="#242427"/>
<path d="M179.914 115.942L193.546 171.235H182.9L168.832 120.057L178.337 117.338" fill="#242427"/>
<path d="M188.147 125.992C210.633 103.506 210.633 67.0479 188.147 44.5613C165.66 22.0748 129.202 22.0748 106.716 44.5613C84.229 67.0479 84.229 103.506 106.716 125.992C129.202 148.479 165.66 148.479 188.147 125.992Z" fill="#2F2824"/>
<path d="M107.069 44.9148C129.36 22.6236 165.502 22.6236 187.793 44.9148C210.084 67.2061 210.084 103.348 187.793 125.639C165.502 147.93 129.36 147.93 107.069 125.639C84.7778 103.348 84.7778 67.2061 107.069 44.9148Z" stroke="white" stroke-opacity="0.08"/>
<path d="M118.947 27.6304C146.736 12.7443 181.331 23.2044 196.218 50.9936C211.104 78.7829 200.643 113.378 172.854 128.264C145.065 143.15 110.47 132.69 95.5836 104.901C80.6976 77.1117 91.1577 42.5165 118.947 27.6304Z" fill="url(#paint0_linear_359_1116)" stroke="url(#paint1_linear_359_1116)"/>
<path d="M176.975 100.761C189.574 83.5858 185.865 59.4487 168.69 46.8491C151.515 34.2495 127.378 37.9587 114.778 55.1338C102.179 72.3088 105.888 96.4459 123.063 109.045C140.238 121.645 164.375 117.936 176.975 100.761Z" fill="white" fill-opacity="0.3"/>
<path d="M164.763 78.4544C164.503 88.8754 155.843 97.1124 145.422 96.8514C135.001 96.5914 126.766 87.9324 127.026 77.5114C127.286 67.0904 135.944 58.8534 146.365 59.1144C156.786 59.3744 165.023 68.0334 164.763 78.4544Z" fill="#FF6E1F" fill-opacity="0.38"/>
<path d="M187.067 36.8435L185.809 24.5235L198.645 11.4565L199.213 24.7325L187.067 36.8435Z" fill="#1D1C1C"/>
<path d="M214.142 27.7416L201.486 26.3926L188.469 38.3026L201.15 39.9796L214.142 27.7416Z" fill="#1D1C1C"/>
<g opacity="0.3">
<path d="M148.422 77.7692L193.276 45.2662C191.837 42.9952 189.992 40.7062 187.935 38.4072L148.497 74.7773L148.422 77.7692Z" fill="black"/>
</g>
<path d="M199.775 22.8917C193.653 28.7167 187.53 34.5427 181.408 40.3687C171.695 49.6097 161.982 58.8517 152.269 68.0937C150.036 70.2177 147.803 72.3427 145.571 74.4677C143.448 76.4867 146.603 79.7648 148.727 77.7428C154.85 71.9178 160.972 66.0917 167.094 60.2667C176.807 51.0247 186.52 41.7837 196.233 32.5417C198.466 30.4167 200.698 28.2927 202.931 26.1687C205.054 24.1467 201.9 20.8697 199.775 22.8917Z" fill="#312F2F"/>
<circle cx="29.5" cy="37.5" r="29" fill="white" fill-opacity="0.09" stroke="url(#paint2_linear_359_1116)"/>
<path d="M24.5278 27C21.0678 27 19.0078 29.06 19.0078 32.52V40.47C19.0078 43.93 21.0778 45.99 24.5278 45.99H32.4778C35.9378 45.99 37.9978 43.93 37.9978 40.47V32.52C37.9978 29.06 35.9278 27 32.4778 27H24.5278Z" fill="white" fill-opacity="0.27"/>
<path d="M37.3277 44.39C36.8777 44.54 36.5177 44.89 36.3677 45.35L35.8177 46.98C35.3477 48.39 33.3677 48.36 32.9277 46.95L31.0777 41C30.7177 39.82 31.8077 38.72 32.9777 39.09L38.9377 40.94C40.3377 41.38 40.3577 43.37 38.9577 43.84L37.3277 44.39Z" fill="url(#paint3_linear_359_1116)"/>
<path d="M26.2129 66.5005L26.2129 96.5479L91.2977 96.5479" stroke="url(#paint4_linear_359_1116)" stroke-dasharray="10 10"/>
<defs>
<linearGradient id="paint0_linear_359_1116" x1="209.999" y1="-11.5015" x2="-24.001" y2="147.499" gradientUnits="userSpaceOnUse">
<stop stop-color="#FF6E1F"/>
<stop offset="1" stop-color="white"/>
</linearGradient>
<linearGradient id="paint1_linear_359_1116" x1="217.999" y1="36.9985" x2="111.499" y2="144.999" gradientUnits="userSpaceOnUse">
<stop stop-color="#FF6E1F"/>
<stop offset="1" stop-color="white" stop-opacity="0.31"/>
</linearGradient>
<linearGradient id="paint2_linear_359_1116" x1="-27.5" y1="21" x2="31" y2="81.5" gradientUnits="userSpaceOnUse">
<stop offset="0.130928" stop-color="#FF6E1F"/>
<stop offset="1" stop-color="white" stop-opacity="0.07"/>
</linearGradient>
<linearGradient id="paint3_linear_359_1116" x1="32.998" y1="36.4995" x2="40.998" y2="54.9995" gradientUnits="userSpaceOnUse">
<stop stop-color="#FF6E1F"/>
<stop offset="1" stop-color="white"/>
</linearGradient>
<linearGradient id="paint4_linear_359_1116" x1="-23.499" y1="45.5" x2="93.501" y2="124" gradientUnits="userSpaceOnUse">
<stop stop-color="white"/>
<stop offset="1" stop-color="white" stop-opacity="0"/>
</linearGradient>
</defs>
</svg>
