<svg width="251" height="197" viewBox="0 0 251 197" fill="none" xmlns="http://www.w3.org/2000/svg">
<path d="M122.697 135.593L107.746 196.235H119.422L134.851 140.106L124.426 137.124" fill="#242427"/>
<path d="M197.318 135.593L212.269 196.235H200.593L185.164 140.106L195.588 137.124" fill="#242427"/>
<path d="M206.345 146.616C231.006 121.955 231.006 81.9702 206.345 57.3085C181.683 32.6468 141.698 32.6468 117.037 57.3085C92.3751 81.9702 92.3751 121.955 117.037 146.616C141.698 171.278 181.683 171.278 206.345 146.616Z" fill="#2F2824"/>
<path d="M117.39 57.6623C141.856 33.196 181.524 33.1955 205.991 57.6616C230.457 82.1281 230.457 121.797 205.991 146.263C181.524 170.729 141.856 170.729 117.39 146.262C92.924 121.796 92.924 82.1287 117.39 57.6623Z" stroke="white" stroke-opacity="0.08"/>
<path d="M130.431 38.6983C160.931 22.3597 198.902 33.84 215.241 64.3406C231.58 94.8415 220.099 132.813 189.598 149.152C159.097 165.49 121.126 154.009 104.788 123.508C88.4494 93.0074 99.9301 55.037 130.431 38.6983Z" fill="url(#paint0_linear_421_1906)" stroke="url(#paint1_linear_421_1906)"/>
<path d="M194.092 118.944C207.911 100.108 203.843 73.6358 185.006 59.8174C166.17 45.9991 139.698 50.0671 125.88 68.9035C112.061 87.7399 116.129 114.212 134.966 128.03C153.802 141.848 180.274 137.781 194.092 118.944Z" fill="white" fill-opacity="0.3"/>
<path d="M180.699 94.4806C180.413 105.91 170.917 114.943 159.488 114.657C148.059 114.372 139.026 104.875 139.311 93.4464C139.596 82.0173 149.093 72.9836 160.522 73.2698C171.951 73.555 180.984 83.0515 180.699 94.4806Z" fill="#FF6E1F" fill-opacity="0.38"/>
<path d="M205.161 48.8442L203.781 35.3324L217.859 21.0015L218.482 35.5617L205.161 48.8442Z" fill="#1D1C1C"/>
<path d="M234.856 38.8643L220.975 37.3848L206.699 50.4468L220.607 52.286L234.856 38.8643Z" fill="#1D1C1C"/>
<g opacity="0.3">
<path d="M162.777 93.7281L211.97 58.0811C210.392 55.5904 208.368 53.08 206.112 50.5586L162.86 90.4467L162.777 93.7281Z" fill="black"/>
</g>
<path d="M219.098 33.5391C212.384 39.9275 205.669 46.3171 198.955 52.7066C188.302 62.8415 177.65 72.9775 166.997 83.1135C164.548 85.443 162.099 87.7735 159.651 90.104C157.323 92.3183 160.783 95.9135 163.112 93.6959C169.828 87.3074 176.542 80.9178 183.256 74.5294C193.909 64.3934 204.561 54.2585 215.214 44.1225C217.663 41.792 220.111 39.4625 222.56 37.1331C224.888 34.9155 221.429 31.3215 219.098 33.5391Z" fill="#312F2F"/>
<path d="M32.5 0.499023C50.1804 0.499023 64.5 14.6093 64.5 31.999C64.5 49.3887 50.1804 63.499 32.5 63.499C14.8196 63.499 0.5 49.3887 0.5 31.999C0.5 14.6093 14.8196 0.499023 32.5 0.499023Z" fill="white" fill-opacity="0.09" stroke="url(#paint2_linear_421_1906)"/>
<path d="M30.398 20.249C26.6496 20.249 24.418 22.5665 24.418 26.459V35.4028C24.418 39.2953 26.6605 41.6128 30.398 41.6128H39.0105C42.7588 41.6128 44.9905 39.2953 44.9905 35.4028V26.459C44.9905 22.5665 42.748 20.249 39.0105 20.249H30.398Z" fill="white" fill-opacity="0.27"/>
<path d="M44.2645 39.8131C43.777 39.9818 43.387 40.3756 43.2245 40.8931L42.6287 42.7268C42.1195 44.3131 39.9745 44.2793 39.4979 42.6931L37.4937 35.9993C37.1037 34.6718 38.2845 33.4343 39.552 33.8506L46.0087 35.9318C47.5254 36.4268 47.547 38.6656 46.0304 39.1943L44.2645 39.8131Z" fill="url(#paint3_linear_421_1906)"/>
<path d="M28.7482 63.8202L28.7482 96.7741L100.129 96.7741" stroke="url(#paint4_linear_421_1906)" stroke-dasharray="10 10"/>
<defs>
<linearGradient id="paint0_linear_421_1906" x1="230.313" y1="-4.17639" x2="-26.3215" y2="170.204" gradientUnits="userSpaceOnUse">
<stop stop-color="#FF6E1F"/>
<stop offset="1" stop-color="white"/>
</linearGradient>
<linearGradient id="paint1_linear_421_1906" x1="239.087" y1="49.015" x2="122.285" y2="167.462" gradientUnits="userSpaceOnUse">
<stop stop-color="#FF6E1F"/>
<stop offset="1" stop-color="white" stop-opacity="0.31"/>
</linearGradient>
<linearGradient id="paint2_linear_421_1906" x1="99.7034" y1="55.8634" x2="-30.2963" y2="56.9823" gradientUnits="userSpaceOnUse">
<stop offset="0.346669" stop-color="#FF6E1F"/>
<stop offset="1" stop-color="white" stop-opacity="0.07"/>
</linearGradient>
<linearGradient id="paint3_linear_421_1906" x1="39.5741" y1="30.9363" x2="48.8062" y2="51.4949" gradientUnits="userSpaceOnUse">
<stop stop-color="#FF6E1F"/>
<stop offset="1" stop-color="white"/>
</linearGradient>
<linearGradient id="paint4_linear_421_1906" x1="-25.7725" y1="40.7884" x2="102.545" y2="126.882" gradientUnits="userSpaceOnUse">
<stop stop-color="white"/>
<stop offset="1" stop-color="white" stop-opacity="0"/>
</linearGradient>
</defs>
</svg>
