<svg width="383" height="458" viewBox="0 0 383 458" fill="none" xmlns="http://www.w3.org/2000/svg">
<line x1="191.5" y1="228" x2="191.5" y2="-2.18557e-08" stroke="url(#paint0_linear_450_1742)" stroke-opacity="0.21"/>
<line x1="383" y1="265.5" x2="228" y2="265.5" stroke="white" stroke-opacity="0.21"/>
<line x1="-2.73509e-09" y1="264.5" x2="155" y2="264.5" stroke="url(#paint1_linear_450_1742)" stroke-opacity="0.21"/>
<line x1="192.5" y1="302" x2="192.5" y2="458" stroke="white" stroke-opacity="0.21"/>
<circle cx="191.5" cy="264.5" r="36" fill="white" fill-opacity="0.06" stroke="url(#paint2_linear_450_1742)"/>
<path fill-rule="evenodd" clip-rule="evenodd" d="M176.918 264.499C176.918 272.549 183.451 279.083 191.501 279.083C199.551 279.083 206.085 272.549 206.085 264.499C206.085 256.449 199.551 249.916 191.501 249.916C183.451 249.916 176.918 256.449 176.918 264.499ZM180.199 264.499C180.199 262.516 180.724 260.576 181.701 258.87C181.993 258.345 182.664 258.17 183.189 258.462L192.041 263.551C192.566 263.858 192.741 264.514 192.449 265.039C192.143 265.564 191.487 265.739 190.962 265.447L186.718 263.012C186.572 263.493 186.47 263.989 186.47 264.499C186.47 267.27 188.73 269.531 191.501 269.531C194.272 269.531 196.533 267.27 196.533 264.499C196.533 261.729 194.272 259.468 191.501 259.468C190.758 259.468 190.028 259.629 189.358 259.949C188.803 260.212 188.162 259.979 187.899 259.424C187.637 258.885 187.87 258.229 188.424 257.966C189.387 257.514 190.422 257.281 191.501 257.281C195.483 257.281 198.72 260.518 198.72 264.499C198.72 268.481 195.483 271.718 191.501 271.718C187.52 271.718 184.283 268.481 184.283 264.499C184.283 263.61 184.458 262.72 184.778 261.889L183.101 260.941C182.635 262.064 182.387 263.274 182.387 264.499C182.387 269.531 186.47 273.614 191.501 273.614C196.533 273.614 200.616 269.531 200.616 264.499C200.616 259.468 196.533 255.385 191.501 255.385C189.518 255.385 187.622 256.012 186.033 257.208C185.551 257.572 184.866 257.47 184.501 256.989C184.137 256.508 184.239 255.822 184.72 255.458C186.689 253.985 189.037 253.197 191.501 253.197C197.728 253.197 202.803 258.272 202.803 264.499C202.803 270.726 197.728 275.801 191.501 275.801C185.274 275.801 180.199 270.726 180.199 264.499Z" fill="url(#paint3_linear_450_1742)"/>
<defs>
<linearGradient id="paint0_linear_450_1742" x1="192.5" y1="228" x2="192.5" y2="2.18557e-08" gradientUnits="userSpaceOnUse">
<stop stop-color="white"/>
<stop offset="1" stop-color="white" stop-opacity="0"/>
</linearGradient>
<linearGradient id="paint1_linear_450_1742" x1="155" y1="265.5" x2="2.73508e-09" y2="265.5" gradientUnits="userSpaceOnUse">
<stop stop-color="white"/>
<stop offset="1" stop-color="white" stop-opacity="0"/>
</linearGradient>
<linearGradient id="paint2_linear_450_1742" x1="336.5" y1="305.5" x2="177.5" y2="265" gradientUnits="userSpaceOnUse">
<stop stop-color="white" stop-opacity="0.89"/>
<stop offset="1" stop-color="white" stop-opacity="0"/>
</linearGradient>
<linearGradient id="paint3_linear_450_1742" x1="191.501" y1="249.916" x2="191.501" y2="279.083" gradientUnits="userSpaceOnUse">
<stop stop-color="#FF6E1F"/>
<stop offset="1" stop-color="white"/>
</linearGradient>
</defs>
</svg>
