<svg width="55" height="55" viewBox="0 0 55 55" fill="none" xmlns="http://www.w3.org/2000/svg">
<path d="M2.86426 20.6237V14.8945C2.86426 8.2487 8.27259 2.86328 14.8955 2.86328H20.6247C21.5643 2.86328 22.3434 3.64245 22.3434 4.58203C22.3434 5.52161 21.5643 6.30078 20.6247 6.30078H14.8955C10.1518 6.30078 6.30176 10.1508 6.30176 14.8945V20.6237C6.30176 21.5633 5.52259 22.3424 4.58301 22.3424C3.64342 22.3424 2.86426 21.5633 2.86426 20.6237Z" fill="#D2D2D2" fill-opacity="0.27"/>
<path d="M48.6979 20.6237V14.8945C48.6979 10.1508 44.8479 6.30078 40.1042 6.30078H34.375C33.4354 6.30078 32.6562 5.52161 32.6562 4.58203C32.6562 3.64245 33.4354 2.86328 34.375 2.86328H40.1042C46.7271 2.86328 52.1354 8.2487 52.1354 14.8945V20.6237C52.1354 21.5633 51.3562 22.3424 50.4167 22.3424C49.4771 22.3424 48.6979 21.5633 48.6979 20.6237Z" fill="white"/>
<path d="M36.667 52.1367C35.7274 52.1367 34.9482 51.3576 34.9482 50.418C34.9482 49.4784 35.7274 48.6992 36.667 48.6992H40.1045C44.8482 48.6992 48.6982 44.8492 48.6982 40.1055V36.668C48.6982 35.7284 49.4774 34.9492 50.417 34.9492C51.3566 34.9492 52.1357 35.7284 52.1357 36.668V40.1055C52.1357 46.7513 46.7274 52.1367 40.1045 52.1367H36.667Z" fill="#D2D2D2" fill-opacity="0.27"/>
<path d="M14.896 52.1354C8.27308 52.1354 2.86475 46.75 2.86475 40.1042V34.375C2.86475 33.4354 3.64391 32.6562 4.5835 32.6562C5.52308 32.6562 6.30225 33.4354 6.30225 34.375V40.1042C6.30225 44.8479 10.1522 48.6979 14.896 48.6979H20.6252C21.5647 48.6979 22.3439 49.4771 22.3439 50.4167C22.3439 51.3562 21.5647 52.1354 20.6252 52.1354H14.896Z" fill="white"/>
<path fill-rule="evenodd" clip-rule="evenodd" d="M19.477 26.0789C15.8319 26.0789 12.877 23.124 12.877 19.4789C12.877 15.8338 15.8319 12.8789 19.477 12.8789C23.122 12.8789 26.077 15.8338 26.077 19.4789C26.077 23.124 23.122 26.0789 19.477 26.0789Z" fill="white"/>
<path fill-rule="evenodd" clip-rule="evenodd" d="M17.1853 42.1206C14.8059 42.1206 12.877 40.1917 12.877 37.8122C12.877 35.4328 14.8059 33.5039 17.1853 33.5039C19.5647 33.5039 21.4936 35.4328 21.4936 37.8122C21.4936 40.1917 19.5647 42.1206 17.1853 42.1206Z" fill="#D2D2D2" fill-opacity="0.27"/>
<path fill-rule="evenodd" clip-rule="evenodd" d="M37.8103 21.4956C35.4309 21.4956 33.502 19.5667 33.502 17.1872C33.502 14.8078 35.4309 12.8789 37.8103 12.8789C40.1897 12.8789 42.1186 14.8078 42.1186 17.1872C42.1186 19.5667 40.1897 21.4956 37.8103 21.4956Z" fill="#D2D2D2" fill-opacity="0.27"/>
<path fill-rule="evenodd" clip-rule="evenodd" d="M35.5189 42.1219C31.8739 42.1219 28.9189 39.167 28.9189 35.5219C28.9189 31.8768 31.8739 28.9219 35.5189 28.9219C39.164 28.9219 42.1189 31.8768 42.1189 35.5219C42.1189 39.167 39.164 42.1219 35.5189 42.1219Z" fill="white"/>
</svg>
