<svg width="27" height="27" viewBox="0 0 27 27" fill="none" xmlns="http://www.w3.org/2000/svg">
<path d="M11.8242 7.27441V7.27539C11.8238 7.27614 11.8223 7.27764 11.8213 7.2793C11.8193 7.28255 11.8164 7.28749 11.8125 7.29395C11.8042 7.30772 11.7915 7.32896 11.7754 7.35645C11.743 7.41162 11.6955 7.49393 11.6377 7.59961C11.5221 7.81096 11.3639 8.11697 11.1934 8.49316C10.8514 9.24745 10.4636 10.2789 10.2734 11.3945C10.0832 12.511 10.0927 13.6978 10.5293 14.7754C10.9634 15.8467 11.828 16.8312 13.3887 17.5361L13.3955 17.54L13.4023 17.543L13.4258 17.5547C13.4439 17.5634 13.4724 17.5763 13.5107 17.5928C13.5876 17.6258 13.7049 17.6721 13.8613 17.7217C14.1743 17.8208 14.6444 17.934 15.2617 17.9844C16.4953 18.085 18.3253 17.9364 20.6768 16.9141L21.3076 16.6396L20.9414 17.2217L20.7617 17.1094L20.9414 17.2227L20.9404 17.2246C20.9394 17.2263 20.9375 17.2293 20.9355 17.2324C20.9316 17.2386 20.9254 17.2472 20.918 17.2588C20.9028 17.2825 20.8802 17.3173 20.8506 17.3623C20.7913 17.4523 20.7036 17.5832 20.5889 17.748C20.3593 18.0777 20.0215 18.5437 19.5879 19.0898C18.7209 20.1818 17.4674 21.5994 15.9248 22.8936C12.8471 25.4756 8.56292 27.6109 3.8916 25.5938L3.87012 25.584L3.85156 25.5703C1.92691 24.1802 1.172 22.3514 1.20215 20.3887C1.23217 18.4389 2.03526 16.3679 3.19824 14.46C4.36297 12.5493 5.8996 10.7839 7.41992 9.44336C8.93216 8.11005 10.4573 7.1715 11.6035 6.95312L12.0811 6.8623L11.8242 7.27441Z" fill="url(#paint0_linear_441_371)" stroke="url(#paint1_linear_441_371)" stroke-width="0.425926"/>
<g filter="url(#filter0_d_441_371)">
<path d="M14.3366 6.12435C14.3366 6.12435 11.8499 11.9267 15.1655 14.6206C15.1655 14.6206 16.8233 16.6929 21.3823 15.4496C24.0763 11.305 22.004 4.25932 14.3366 6.12435Z" fill="url(#paint2_linear_441_371)" shape-rendering="crispEdges"/>
</g>
<defs>
<filter id="filter0_d_441_371" x="9.18215" y="0.705295" width="17.5849" height="18.5489" filterUnits="userSpaceOnUse" color-interpolation-filters="sRGB">
<feFlood flood-opacity="0" result="BackgroundImageFix"/>
<feColorMatrix in="SourceAlpha" type="matrix" values="0 0 0 0 0 0 0 0 0 0 0 0 0 0 0 0 0 0 127 0" result="hardAlpha"/>
<feOffset dy="-0.851852"/>
<feGaussianBlur stdDeviation="2.12963"/>
<feComposite in2="hardAlpha" operator="out"/>
<feColorMatrix type="matrix" values="0 0 0 0 1 0 0 0 0 1 0 0 0 0 1 0 0 0 0.25 0"/>
<feBlend mode="normal" in2="BackgroundImageFix" result="effect1_dropShadow_441_371"/>
<feBlend mode="normal" in="SourceGraphic" in2="effect1_dropShadow_441_371" result="shape"/>
</filter>
<linearGradient id="paint0_linear_441_371" x1="11.1843" y1="16.204" x2="3.58626" y2="24.5973" gradientUnits="userSpaceOnUse">
<stop stop-color="white"/>
<stop offset="1" stop-color="white" stop-opacity="0.5"/>
</linearGradient>
<linearGradient id="paint1_linear_441_371" x1="16.0324" y1="12.3337" x2="3.1991" y2="25.5337" gradientUnits="userSpaceOnUse">
<stop offset="0.250036" stop-color="white" stop-opacity="0"/>
<stop offset="0.753476" stop-color="white"/>
</linearGradient>
<linearGradient id="paint2_linear_441_371" x1="21.7761" y1="8.25796" x2="14.2526" y2="14.8756" gradientUnits="userSpaceOnUse">
<stop stop-color="white"/>
<stop offset="1" stop-color="white" stop-opacity="0.5"/>
</linearGradient>
</defs>
</svg>
