<svg width="243" height="246" viewBox="0 0 243 246" fill="none" xmlns="http://www.w3.org/2000/svg">
<circle cx="64" cy="69" r="39" fill="#242427"/>
<circle cx="64" cy="69" r="38.5" stroke="url(#paint0_linear_359_223)" stroke-opacity="0.9"/>
<path d="M69.5571 57.2627C67.7421 56.7347 66.4881 56.7787 65.6191 57.4277C64.5741 58.2087 64.4531 59.6167 64.4531 60.6177V63.3567C64.4531 66.0627 65.6851 67.4377 68.1051 67.4377H71.2621C72.2521 67.4377 73.6711 67.3167 74.4521 66.2717C75.1231 65.4137 75.1781 64.1597 74.6391 62.3447C73.9351 59.9577 71.9441 57.9667 69.5571 57.2627Z" fill="url(#paint1_linear_359_223)"/>
<path d="M70.4691 68.8786H66.5311C64.5951 68.8786 63.0221 67.3056 63.0221 65.3696V61.4316C63.0221 61.0026 62.8351 60.5846 62.5051 60.2986C62.1861 60.0126 61.7461 59.8806 61.3281 59.9356C58.7431 60.2656 56.3671 61.6846 54.8161 63.8186C53.2541 65.9636 52.6821 68.5816 53.1771 71.1996C53.8921 74.9836 56.9171 78.0086 60.7121 78.7236C61.3171 78.8446 61.9221 78.8996 62.5271 78.8996C64.5181 78.8996 66.4431 78.2836 68.0821 77.0846C70.2161 75.5336 71.6351 73.1576 71.9651 70.5726C72.0201 70.1436 71.8881 69.7146 71.6021 69.3956C71.3161 69.0656 70.8981 68.8786 70.4691 68.8786Z" fill="#D2D2D2"/>
<path d="M241.86 0H224.592L174.203 30.3262C174.392 30.6098 180.34 34.9108 188.108 40.4653L115.14 174.819L54.0724 147.848L0 245.033H29.5462L66.8039 176.976L122.844 202.936L146.6 205.771L210.906 56.6818C218.987 62.4099 225.194 66.7957 225.194 66.7957H242.461C242.461 66.7957 237.426 24.5316 237.426 24.1959C237.426 23.8601 241.86 0 241.86 0Z" fill="#433A38"/>
<path opacity="0.3" d="M241.86 0H224.592L174.203 30.3262C174.392 30.6098 180.34 34.9108 188.108 40.4653L115.14 174.819L54.0724 147.848L0 245.033H29.5462L66.8039 176.976L122.844 202.936L146.6 205.771L210.906 56.6818C218.987 62.4099 225.194 66.7957 225.194 66.7957H242.461C242.461 66.7957 237.426 24.5316 237.426 24.1959C237.426 23.8601 241.86 0 241.86 0Z" fill="#413836"/>
<path d="M17.4805 245.035L71.7693 147.018L132.62 174.821L211.095 30.3281L234.46 42.6031L146.599 205.773L84.2843 176.978L47.0267 245.035H17.4805Z" fill="url(#paint2_linear_359_223)"/>
<path d="M191.473 30.3262C192.029 31.1605 242.464 66.7957 242.464 66.7957L241.862 0L191.473 30.3262Z" fill="url(#paint3_linear_359_223)"/>
<path d="M191.47 30.3233C191.47 30.421 187.605 30.4997 182.837 30.4997C178.068 30.4997 174.203 30.4203 174.203 30.3233C174.203 30.2263 178.068 30.147 182.837 30.147C187.604 30.147 191.47 30.2263 191.47 30.3233Z" fill="#263238"/>
<path d="M204.962 40.7452C204.962 40.8429 201.097 40.9216 196.329 40.9216C191.56 40.9216 187.695 40.8422 187.695 40.7452C187.695 40.6475 191.56 40.5689 196.329 40.5689C201.097 40.5682 204.962 40.6475 204.962 40.7452Z" fill="#263238"/>
<defs>
<linearGradient id="paint0_linear_359_223" x1="19" y1="42.5" x2="84" y2="129.5" gradientUnits="userSpaceOnUse">
<stop stop-color="#FF6E1F"/>
<stop offset="1" stop-color="white"/>
</linearGradient>
<linearGradient id="paint1_linear_359_223" x1="69.7285" y1="56.9004" x2="75.002" y2="80.0004" gradientUnits="userSpaceOnUse">
<stop stop-color="#FF6E1F"/>
<stop offset="1" stop-color="white"/>
</linearGradient>
<linearGradient id="paint2_linear_359_223" x1="88.998" y1="76.5" x2="184.998" y2="256" gradientUnits="userSpaceOnUse">
<stop stop-color="#FF6E1F"/>
<stop offset="1" stop-color="white"/>
</linearGradient>
<linearGradient id="paint3_linear_359_223" x1="197.501" y1="60.5" x2="320.001" y2="-10.5" gradientUnits="userSpaceOnUse">
<stop stop-color="#FF6E1F"/>
<stop offset="1" stop-color="white"/>
</linearGradient>
</defs>
</svg>
