<svg width="254" height="257" viewBox="0 0 254 257" fill="none" xmlns="http://www.w3.org/2000/svg">
<circle cx="67.0472" cy="55.5194" r="40.8558" fill="#242427"/>
<circle cx="67.0472" cy="55.5194" r="40.3558" stroke="url(#paint0_linear_421_1985)" stroke-opacity="0.9"/>
<path d="M72.8625 43.2238C70.9611 42.6707 69.6475 42.7168 68.7371 43.3967C67.6424 44.2149 67.5156 45.6899 67.5156 46.7385V49.6078C67.5156 52.4426 68.8062 53.883 71.3414 53.883H74.6486C75.6857 53.883 77.1723 53.7562 77.9904 52.6615C78.6933 51.7627 78.751 50.449 78.1863 48.5477C77.4488 46.0471 75.3631 43.9613 72.8625 43.2238Z" fill="url(#paint1_linear_421_1985)"/>
<path d="M73.8197 55.3926H69.6943C67.6662 55.3926 66.0183 53.7447 66.0183 51.7166V47.5912C66.0183 47.1418 65.8224 46.7039 65.4767 46.4043C65.1426 46.1047 64.6816 45.9664 64.2437 46.0241C61.5357 46.3698 59.0467 47.8563 57.4219 50.0918C55.7855 52.3389 55.1863 55.0815 55.7049 57.824C56.4539 61.7881 59.6228 64.957 63.5984 65.7061C64.2322 65.8328 64.866 65.8904 65.4998 65.8904C67.5855 65.8904 69.6021 65.2451 71.3191 63.9891C73.5547 62.3643 75.0412 59.8752 75.3869 57.1672C75.4445 56.7178 75.3062 56.2684 75.0066 55.9342C74.707 55.5885 74.2691 55.3926 73.8197 55.3926Z" fill="#D2D2D2"/>
<path d="M253.368 0H235.279L182.493 31.7693C182.69 32.0663 188.921 36.572 197.059 42.3908L120.619 183.138L56.6454 154.884L0 256.693H30.9521L69.9827 185.397L128.689 212.593L153.575 215.563L220.942 59.3789C229.407 65.3796 235.909 69.9741 235.909 69.9741H253.999C253.999 69.9741 248.723 25.6989 248.723 25.3472C248.723 24.9955 253.368 0 253.368 0Z" fill="#433A38"/>
<path opacity="0.3" d="M253.368 0H235.279L182.493 31.7693C182.69 32.0663 188.921 36.572 197.059 42.3908L120.619 183.138L56.6454 154.884L0 256.693H30.9521L69.9827 185.397L128.689 212.593L153.575 215.563L220.942 59.3789C229.407 65.3796 235.909 69.9741 235.909 69.9741H253.999C253.999 69.9741 248.723 25.6989 248.723 25.3472C248.723 24.9955 253.368 0 253.368 0Z" fill="#413836"/>
<path d="M18.3125 256.695L75.1846 154.013L138.931 183.139L221.14 31.771L245.617 44.63L153.575 215.565L88.2952 185.399L49.2646 256.695H18.3125Z" fill="url(#paint2_linear_421_1985)"/>
<path d="M200.582 31.7693C201.165 32.6433 253.999 69.9742 253.999 69.9742L253.369 0L200.582 31.7693Z" fill="url(#paint3_linear_421_1985)"/>
<path d="M200.581 31.7692C200.581 31.8715 196.532 31.954 191.537 31.954C186.541 31.954 182.492 31.8708 182.492 31.7692C182.492 31.6676 186.541 31.5845 191.537 31.5845C196.531 31.5845 200.581 31.6676 200.581 31.7692Z" fill="#263238"/>
<path d="M214.714 42.6862C214.714 42.7885 210.664 42.871 205.67 42.871C200.674 42.871 196.625 42.7878 196.625 42.6862C196.625 42.5839 200.674 42.5015 205.67 42.5015C210.664 42.5008 214.714 42.5839 214.714 42.6862Z" fill="#263238"/>
<defs>
<linearGradient id="paint0_linear_421_1985" x1="151.378" y1="84.8517" x2="93.7606" y2="100.042" gradientUnits="userSpaceOnUse">
<stop stop-color="#FF6E1F"/>
<stop offset="1" stop-color="white"/>
</linearGradient>
<linearGradient id="paint1_linear_421_1985" x1="73.042" y1="42.8442" x2="78.5664" y2="67.0434" gradientUnits="userSpaceOnUse">
<stop stop-color="#FF6E1F"/>
<stop offset="1" stop-color="white"/>
</linearGradient>
<linearGradient id="paint2_linear_421_1985" x1="93.2332" y1="80.1399" x2="193.801" y2="268.181" gradientUnits="userSpaceOnUse">
<stop stop-color="#FF6E1F"/>
<stop offset="1" stop-color="white"/>
</linearGradient>
<linearGradient id="paint3_linear_421_1985" x1="206.897" y1="63.3788" x2="335.226" y2="-10.9996" gradientUnits="userSpaceOnUse">
<stop stop-color="#FF6E1F"/>
<stop offset="1" stop-color="white"/>
</linearGradient>
</defs>
</svg>
