<svg width="183" height="40" viewBox="0 0 183 40" fill="none" xmlns="http://www.w3.org/2000/svg">
<g clip-path="url(#clip0_377_547)">
<g clip-path="url(#clip1_377_547)">
<g clip-path="url(#clip2_377_547)">
<mask id="mask0_377_547" style="mask-type:luminance" maskUnits="userSpaceOnUse" x="-1" y="0" width="185" height="40">
<path d="M-0.296875 0H183.293V40H-0.296875V0Z" fill="white"/>
</mask>
<g mask="url(#mask0_377_547)">
<path d="M32.1493 3.10154H19.0908C14.6088 3.10154 10.5339 4.94769 7.57492 7.91897C4.50752 10.9913 2.78578 15.156 2.78825 19.4974V34.5436L-0.296875 37.4441V19.4974C-0.296875 14.1333 1.88364 9.25846 5.39748 5.72615C8.9103 2.19385 13.7575 0 19.0908 0H32.1493V3.10154ZM32.1493 15.2554H21.1154C19.4596 15.2621 17.8742 15.9257 16.7072 17.1005C15.5364 18.2794 14.8768 19.8718 14.8713 21.5333V24.7446L11.7883 27.3272V21.5323C11.7933 19.0494 12.7773 16.6686 14.5267 14.9067C15.3902 14.0373 16.4165 13.3466 17.547 12.8741C18.6776 12.4015 19.8901 12.1565 21.1154 12.1528H32.1493V15.2554ZM32.1493 9.17846H20.1031C17.1124 9.18925 14.2484 10.3875 12.1411 12.5097C10.0267 14.6388 8.83646 17.5153 8.82825 20.5159V29.801L5.74415 32.3836V20.5169C5.7436 16.6925 7.26123 13.0242 9.96364 10.3179C12.5667 7.70051 16.1513 6.0759 20.1031 6.0759H32.1483V9.17949L32.1493 9.17846ZM14.8724 36.8974H27.9288C32.4108 36.8974 36.4867 35.0513 39.4457 32.08C42.5132 29.0077 44.2349 24.843 44.2324 20.5015V5.45641L47.3175 2.5559V20.5026C47.3175 25.8667 45.137 30.7415 41.6241 34.2749C38.1113 37.8072 33.2621 40 27.9288 40H14.8713V36.8974H14.8724Z" fill="#B3B3B3"/>
<path d="M14.875 30.8194H26.9201C29.9101 30.808 32.7732 29.6098 34.8801 27.4882C36.9941 25.3593 38.1844 22.4832 38.1929 19.483V10.1948L41.2781 7.61328V19.483C41.2781 23.4553 39.6627 27.0656 37.0586 29.682C34.4545 32.2974 30.8678 33.922 26.9181 33.922H14.875V30.8194Z" fill="#B3B3B3"/>
<path d="M14.876 24.7451H25.9088C27.5648 24.7381 29.1503 24.0741 30.3171 22.899C31.4878 21.7201 32.1473 20.1276 32.153 18.4662V15.2559L35.236 12.6723V18.4672C35.2312 20.9501 34.2472 23.331 32.4976 25.0928C31.6342 25.9623 30.6079 26.653 29.4773 27.1256C28.3468 27.5981 27.1342 27.8431 25.9088 27.8467H14.875V24.7451H14.876ZM62.9858 15.2785V21.059H73.0504V25.1205H62.9847V33.0867H57.9529V11.2179H74.3868V15.2795H62.9847L62.9858 15.2785ZM77.1509 16.2774H81.9971V33.0846H77.1509V16.2774ZM79.5735 13.9369C78.6822 13.9369 77.9581 13.6764 77.3991 13.1554C77.1285 12.9114 76.9135 12.6122 76.7685 12.278C76.6236 11.9437 76.5522 11.5822 76.5591 11.2179C76.5591 10.4487 76.8391 9.80256 77.3991 9.28154C77.9581 8.76051 78.6832 8.5 79.5735 8.5C80.4637 8.5 81.1878 8.74923 81.7478 9.24872C82.3058 9.74821 82.5858 10.3728 82.5868 11.1236C82.5868 11.9359 82.3068 12.6077 81.7468 13.139C81.1878 13.6703 80.4627 13.9359 79.5735 13.9369ZM96.6586 16.0292C98.7294 16.0292 100.402 16.6549 101.674 17.9041C102.949 19.1533 103.586 21.0077 103.586 23.4641V33.0867H98.7396V24.2149C98.7396 22.8815 98.4504 21.8867 97.8699 21.2303C97.2894 20.5749 96.4514 20.2467 95.354 20.2467C94.1314 20.2467 93.1591 20.6262 92.434 21.3862C91.7099 22.1462 91.3468 23.2764 91.3468 24.7769V33.0867H86.5006V16.2774H91.1294V18.2467C91.7704 17.539 92.5683 16.9913 93.5212 16.6056C94.475 16.221 95.5201 16.0292 96.6586 16.0292ZM114.706 16.0292C117.296 16.0292 119.283 16.6497 120.671 17.8887C122.058 19.1267 122.752 20.9964 122.753 23.4959V33.0856H118.217V30.9933C117.305 32.5564 115.607 33.339 113.122 33.339C111.839 33.339 110.725 33.1205 109.783 32.6826C108.84 32.2456 108.12 31.6415 107.624 30.8713C107.127 30.1 106.879 29.2251 106.879 28.2456C106.879 26.6846 107.465 25.4559 108.635 24.5605C109.804 23.6641 111.611 23.2169 114.054 23.2169H117.908C117.908 22.1554 117.587 21.3379 116.944 20.7656C116.302 20.1923 115.339 19.9062 114.054 19.9062C113.163 19.9062 112.277 20.0487 111.43 20.3277C110.569 20.6087 109.84 20.9882 109.241 21.4682L107.501 18.0621C108.412 17.4169 109.504 16.9174 110.777 16.5646C112.056 16.2104 113.378 16.032 114.706 16.0344V16.0292ZM114.334 30.0569C115.162 30.0569 115.897 29.8641 116.54 29.4785C117.182 29.0938 117.638 28.5256 117.907 27.7759V26.0569H114.581C112.593 26.0569 111.599 26.7133 111.6 28.0262C111.6 28.6497 111.843 29.1441 112.329 29.5092C112.816 29.8744 113.483 30.0569 114.333 30.0579L114.334 30.0569ZM137.29 16.0303C139.361 16.0303 141.033 16.6549 142.307 17.9041C143.58 19.1533 144.217 21.0077 144.218 23.4641V33.0867H139.372V24.2149C139.372 22.8815 139.082 21.8867 138.502 21.2303C137.922 20.5749 137.083 20.2467 135.986 20.2467C134.764 20.2467 133.791 20.6262 133.067 21.3862C132.342 22.1462 131.98 23.2764 131.98 24.7769V33.0867H127.133V16.2774H131.761V18.2467C132.403 17.539 133.201 16.9913 134.154 16.6056C135.107 16.221 136.152 16.0292 137.291 16.0292L137.29 16.0303ZM156.861 33.3359C155.079 33.3359 153.479 32.9667 152.062 32.2282C150.643 31.4877 149.534 30.462 148.736 29.1503C147.939 27.8374 147.54 26.3482 147.54 24.6826C147.54 23.0159 147.939 21.5277 148.737 20.2169C149.536 18.9062 150.644 17.8805 152.063 17.14C153.481 16.4015 155.081 16.0313 156.862 16.0323C158.623 16.0323 160.16 16.4015 161.475 17.14C162.76 17.8462 163.772 18.9623 164.349 20.3103L160.589 22.341C159.719 20.8005 158.467 20.0303 156.831 20.0303C155.568 20.0303 154.522 20.4467 153.693 21.2785C152.865 22.1092 152.451 23.2456 152.452 24.6836C152.452 26.1205 152.867 27.2559 153.693 28.0887C154.521 28.9226 155.566 29.3379 156.831 29.3369C158.487 29.3369 159.74 28.5667 160.589 27.0251L164.349 29.0867C163.749 30.419 162.791 31.46 161.475 32.2108C160.159 32.9626 158.621 33.3379 156.861 33.3359ZM183.297 24.7462C183.297 24.8087 183.265 25.2467 183.202 26.059H170.561C170.789 27.1 171.326 27.9236 172.176 28.5267C173.024 29.1308 174.08 29.4323 175.344 29.4323C176.214 29.4323 176.986 29.302 177.659 29.0426C178.33 28.782 178.957 28.3708 179.538 27.8077L182.116 30.619C180.542 32.4313 178.243 33.3369 175.22 33.3369C173.333 33.3369 171.667 32.9677 170.219 32.2292C168.77 31.4887 167.652 30.4641 166.864 29.1533C166.076 27.8405 165.683 26.3513 165.683 24.6856C165.683 23.0405 166.072 21.5574 166.848 20.2344C167.608 18.9265 168.715 17.855 170.047 17.139C171.404 16.4005 172.921 16.0313 174.598 16.0313C176.234 16.0313 177.715 16.3851 179.04 17.0928C180.352 17.7876 181.436 18.845 182.163 20.139C182.918 21.4621 183.297 22.9974 183.297 24.7462ZM174.629 19.7185C173.53 19.7185 172.609 20.0313 171.864 20.6549C171.118 21.2805 170.663 22.1338 170.497 23.219H178.728C178.563 22.1554 178.108 21.3072 177.362 20.6723C176.617 20.0364 175.705 19.7185 174.629 19.7185Z" fill="#B3B3B3"/>
</g>
</g>
</g>
</g>
<defs>
<clipPath id="clip0_377_547">
<rect width="183" height="40" fill="white"/>
</clipPath>
<clipPath id="clip1_377_547">
<rect width="183" height="40" fill="white"/>
</clipPath>
<clipPath id="clip2_377_547">
<rect width="183.59" height="40" fill="white" transform="translate(-0.296875)"/>
</clipPath>
</defs>
</svg>
