<svg width="1146" height="682" viewBox="0 0 1146 682" fill="none" xmlns="http://www.w3.org/2000/svg">
<line x1="562.5" y1="228" x2="562.5" y2="-2.18557e-08" stroke="url(#paint0_linear_285_4231)" stroke-opacity="0.21"/>
<line x1="754" y1="265.5" x2="599" y2="265.5" stroke="white" stroke-opacity="0.21"/>
<line x1="371" y1="264.5" x2="526" y2="264.5" stroke="url(#paint1_linear_285_4231)" stroke-opacity="0.21"/>
<line x1="563.5" y1="302" x2="563.5" y2="458" stroke="white" stroke-opacity="0.21"/>
<g clip-path="url(#clip0_285_4231)">
<g filter="url(#filter0_i_285_4231)">
<rect x="754" y="63" width="392" height="309" rx="20" fill="white" fill-opacity="0.02"/>
</g>
<rect x="754.5" y="63.5" width="391" height="308" rx="19.5" stroke="url(#paint2_linear_285_4231)"/>
<path d="M828.23 324.743H823.541V328.177H828.033V329.508H823.541V334H822.134V323.412H828.23V324.743ZM836.18 333.047C835.403 333.813 834.461 334.197 833.351 334.197C832.242 334.197 831.299 333.813 830.523 333.047C829.757 332.281 829.374 331.338 829.374 330.219C829.374 329.099 829.757 328.157 830.523 327.39C831.299 326.624 832.242 326.241 833.351 326.241C834.461 326.241 835.403 326.624 836.18 327.39C836.956 328.157 837.344 329.099 837.344 330.219C837.344 331.338 836.956 332.281 836.18 333.047ZM833.351 332.911C834.108 332.911 834.743 332.654 835.257 332.14C835.771 331.625 836.029 330.985 836.029 330.219C836.029 329.452 835.771 328.812 835.257 328.298C834.743 327.784 834.108 327.526 833.351 327.526C832.605 327.526 831.975 327.784 831.461 328.298C830.947 328.812 830.689 329.452 830.689 330.219C830.689 330.985 830.947 331.625 831.461 332.14C831.975 332.654 832.605 332.911 833.351 332.911ZM838.896 334V322.959H840.212V334H838.896ZM842.219 334V322.959H843.535V334H842.219ZM851.925 333.047C851.149 333.813 850.206 334.197 849.097 334.197C847.988 334.197 847.045 333.813 846.268 333.047C845.502 332.281 845.119 331.338 845.119 330.219C845.119 329.099 845.502 328.157 846.268 327.39C847.045 326.624 847.988 326.241 849.097 326.241C850.206 326.241 851.149 326.624 851.925 327.39C852.702 328.157 853.09 329.099 853.09 330.219C853.09 331.338 852.702 332.281 851.925 333.047ZM849.097 332.911C849.853 332.911 850.488 332.654 851.003 332.14C851.517 331.625 851.774 330.985 851.774 330.219C851.774 329.452 851.517 328.812 851.003 328.298C850.488 327.784 849.853 327.526 849.097 327.526C848.351 327.526 847.72 327.784 847.206 328.298C846.692 328.812 846.435 329.452 846.435 330.219C846.435 330.985 846.692 331.625 847.206 332.14C847.72 332.654 848.351 332.911 849.097 332.911ZM863.254 326.438H864.631L862.286 334H860.94L859.171 328.404L857.401 334H856.055L853.71 326.438H855.087L856.751 332.185L858.535 326.438H859.806L861.591 332.2L863.254 326.438ZM866.612 330.824C866.743 331.499 867.051 332.024 867.535 332.397C868.029 332.77 868.634 332.956 869.35 332.956C870.348 332.956 871.074 332.588 871.528 331.852L872.647 332.487C871.911 333.627 870.802 334.197 869.319 334.197C868.119 334.197 867.141 333.824 866.385 333.077C865.639 332.321 865.266 331.368 865.266 330.219C865.266 329.079 865.634 328.131 866.37 327.375C867.106 326.619 868.059 326.241 869.229 326.241C870.338 326.241 871.24 326.634 871.936 327.421C872.642 328.197 872.995 329.135 872.995 330.234C872.995 330.425 872.98 330.622 872.949 330.824H866.612ZM869.229 327.481C868.523 327.481 867.938 327.683 867.474 328.086C867.01 328.479 866.723 329.009 866.612 329.674H871.664C871.553 328.958 871.271 328.414 870.817 328.041C870.363 327.668 869.834 327.481 869.229 327.481ZM875.823 327.708C876.257 326.77 877.043 326.301 878.183 326.301V327.678C877.537 327.647 876.983 327.819 876.519 328.192C876.055 328.565 875.823 329.165 875.823 329.992V334H874.507V326.438H875.823V327.708ZM880.324 328.479C880.324 328.772 880.47 329.009 880.763 329.19C881.055 329.362 881.408 329.503 881.821 329.614C882.235 329.715 882.648 329.836 883.062 329.977C883.475 330.108 883.828 330.34 884.12 330.672C884.413 330.995 884.559 331.414 884.559 331.928C884.559 332.614 884.292 333.163 883.757 333.576C883.233 333.99 882.557 334.197 881.731 334.197C880.995 334.197 880.364 334.035 879.84 333.713C879.316 333.39 878.943 332.961 878.721 332.427L879.855 331.777C879.976 332.14 880.203 332.427 880.536 332.639C880.869 332.85 881.267 332.956 881.731 332.956C882.164 332.956 882.522 332.876 882.805 332.714C883.087 332.543 883.228 332.281 883.228 331.928C883.228 331.635 883.082 331.404 882.789 331.232C882.497 331.051 882.144 330.909 881.731 330.809C881.317 330.698 880.904 330.572 880.49 330.43C880.077 330.289 879.724 330.057 879.432 329.735C879.139 329.412 878.993 328.999 878.993 328.494C878.993 327.839 879.245 327.3 879.749 326.876C880.264 326.453 880.904 326.241 881.67 326.241C882.285 326.241 882.83 326.382 883.304 326.664C883.788 326.937 884.151 327.32 884.393 327.814L883.289 328.434C883.016 327.789 882.477 327.466 881.67 327.466C881.297 327.466 880.979 327.557 880.717 327.738C880.455 327.91 880.324 328.157 880.324 328.479ZM896.084 328.51C896.568 328.742 896.952 329.074 897.234 329.508C897.526 329.941 897.673 330.441 897.673 331.005C897.673 331.852 897.375 332.563 896.78 333.138C896.185 333.713 895.459 334 894.602 334H890.034V323.412H894.269C895.096 323.412 895.797 323.69 896.372 324.244C896.947 324.799 897.234 325.485 897.234 326.301C897.234 327.239 896.851 327.975 896.084 328.51ZM894.269 324.728H891.441V327.965H894.269C894.713 327.965 895.086 327.809 895.389 327.496C895.691 327.184 895.842 326.8 895.842 326.347C895.842 325.903 895.686 325.525 895.374 325.212C895.071 324.89 894.703 324.728 894.269 324.728ZM894.602 332.684C895.076 332.684 895.474 332.518 895.797 332.185C896.12 331.852 896.281 331.444 896.281 330.96C896.281 330.486 896.115 330.083 895.782 329.75C895.459 329.417 895.066 329.251 894.602 329.251H891.441V332.684H894.602ZM905.51 326.438H906.826V334H905.51V332.699C904.854 333.697 903.901 334.197 902.651 334.197C901.592 334.197 900.69 333.813 899.944 333.047C899.198 332.271 898.825 331.328 898.825 330.219C898.825 329.11 899.198 328.172 899.944 327.405C900.69 326.629 901.592 326.241 902.651 326.241C903.901 326.241 904.854 326.74 905.51 327.738V326.438ZM902.818 332.926C903.584 332.926 904.224 332.669 904.738 332.155C905.253 331.63 905.51 330.985 905.51 330.219C905.51 329.452 905.253 328.812 904.738 328.298C904.224 327.774 903.584 327.511 902.818 327.511C902.061 327.511 901.426 327.774 900.912 328.298C900.398 328.812 900.14 329.452 900.14 330.219C900.14 330.985 900.398 331.63 900.912 332.155C901.426 332.669 902.061 332.926 902.818 332.926ZM909.939 328.479C909.939 328.772 910.085 329.009 910.378 329.19C910.67 329.362 911.023 329.503 911.436 329.614C911.85 329.715 912.263 329.836 912.677 329.977C913.09 330.108 913.443 330.34 913.735 330.672C914.028 330.995 914.174 331.414 914.174 331.928C914.174 332.614 913.907 333.163 913.372 333.576C912.848 333.99 912.172 334.197 911.346 334.197C910.609 334.197 909.979 334.035 909.455 333.713C908.931 333.39 908.557 332.961 908.336 332.427L909.47 331.777C909.591 332.14 909.818 332.427 910.151 332.639C910.483 332.85 910.882 332.956 911.346 332.956C911.779 332.956 912.137 332.876 912.419 332.714C912.702 332.543 912.843 332.281 912.843 331.928C912.843 331.635 912.697 331.404 912.404 331.232C912.112 331.051 911.759 330.909 911.346 330.809C910.932 330.698 910.519 330.572 910.105 330.43C909.692 330.289 909.339 330.057 909.047 329.735C908.754 329.412 908.608 328.999 908.608 328.494C908.608 327.839 908.86 327.3 909.364 326.876C909.878 326.453 910.519 326.241 911.285 326.241C911.9 326.241 912.445 326.382 912.919 326.664C913.403 326.937 913.766 327.32 914.008 327.814L912.903 328.434C912.631 327.789 912.092 327.466 911.285 327.466C910.912 327.466 910.594 327.557 910.332 327.738C910.07 327.91 909.939 328.157 909.939 328.479ZM916.448 330.824C916.579 331.499 916.886 332.024 917.37 332.397C917.864 332.77 918.469 332.956 919.185 332.956C920.184 332.956 920.91 332.588 921.363 331.852L922.483 332.487C921.747 333.627 920.637 334.197 919.155 334.197C917.955 334.197 916.977 333.824 916.221 333.077C915.475 332.321 915.102 331.368 915.102 330.219C915.102 329.079 915.47 328.131 916.206 327.375C916.942 326.619 917.895 326.241 919.064 326.241C920.174 326.241 921.076 326.634 921.772 327.421C922.478 328.197 922.83 329.135 922.83 330.234C922.83 330.425 922.815 330.622 922.785 330.824H916.448ZM919.064 327.481C918.359 327.481 917.774 327.683 917.31 328.086C916.846 328.479 916.559 329.009 916.448 329.674H921.499C921.389 328.958 921.106 328.414 920.652 328.041C920.199 327.668 919.669 327.481 919.064 327.481Z" fill="#F0F0F0" fill-opacity="0.7"/>
<path d="M786 259C827.265 259 808 196.5 883.5 216.5C927 230.5 908.224 131 949.489 131C990.754 131 965.5 211.122 1031.23 211.122C1072.49 211.122 1079.74 107 1121 107" stroke="#863C13" stroke-width="5.81515" stroke-linecap="round"/>
<circle cx="944.5" cy="130.5" r="10.5" fill="#7B350E" stroke="white" stroke-width="2"/>
<path d="M829.848 297.436C831.341 297.716 832.564 298.36 833.516 299.368C834.468 300.376 834.944 301.655 834.944 303.204C834.944 305.108 834.291 306.611 832.984 307.712C831.677 308.813 830.091 309.364 828.224 309.364C826.731 309.364 825.405 309.028 824.248 308.356C823.091 307.665 822.269 306.676 821.784 305.388L823.968 304.1C824.547 305.911 825.965 306.816 828.224 306.816C829.437 306.816 830.427 306.499 831.192 305.864C831.957 305.229 832.34 304.343 832.34 303.204C832.34 302.065 831.957 301.179 831.192 300.544C830.427 299.891 829.437 299.564 828.224 299.564H827.552L826.516 297.968L831.052 291.836H822.344V289.4H834.104V291.696L829.848 297.436ZM850.376 306.592C849.051 308.44 847.194 309.364 844.804 309.364C842.415 309.364 840.558 308.44 839.232 306.592C837.907 304.744 837.244 302.28 837.244 299.2C837.244 296.12 837.907 293.656 839.232 291.808C840.558 289.96 842.415 289.036 844.804 289.036C847.194 289.036 849.051 289.96 850.376 291.808C851.702 293.656 852.364 296.12 852.364 299.2C852.364 302.28 851.702 304.744 850.376 306.592ZM841.136 304.828C841.995 306.153 843.218 306.816 844.804 306.816C846.391 306.816 847.614 306.153 848.472 304.828C849.35 303.503 849.788 301.627 849.788 299.2C849.788 296.773 849.35 294.897 848.472 293.572C847.614 292.228 846.391 291.556 844.804 291.556C843.218 291.556 841.995 292.219 841.136 293.544C840.278 294.869 839.848 296.755 839.848 299.2C839.848 301.627 840.278 303.503 841.136 304.828ZM868.013 306.592C866.688 308.44 864.83 309.364 862.441 309.364C860.052 309.364 858.194 308.44 856.869 306.592C855.544 304.744 854.881 302.28 854.881 299.2C854.881 296.12 855.544 293.656 856.869 291.808C858.194 289.96 860.052 289.036 862.441 289.036C864.83 289.036 866.688 289.96 868.013 291.808C869.338 293.656 870.001 296.12 870.001 299.2C870.001 302.28 869.338 304.744 868.013 306.592ZM858.773 304.828C859.632 306.153 860.854 306.816 862.441 306.816C864.028 306.816 865.25 306.153 866.109 304.828C866.986 303.503 867.425 301.627 867.425 299.2C867.425 296.773 866.986 294.897 866.109 293.572C865.25 292.228 864.028 291.556 862.441 291.556C860.854 291.556 859.632 292.219 858.773 293.544C857.914 294.869 857.485 296.755 857.485 299.2C857.485 301.627 857.914 303.503 858.773 304.828ZM895.226 294.636C896.794 294.636 898.063 295.149 899.034 296.176C900.004 297.184 900.49 298.556 900.49 300.292V309H898.054V300.376C898.054 299.293 897.774 298.453 897.214 297.856C896.654 297.259 895.907 296.96 894.974 296.96C893.928 296.96 893.088 297.315 892.454 298.024C891.838 298.715 891.53 299.779 891.53 301.216V309H889.094V300.376C889.094 299.293 888.823 298.453 888.282 297.856C887.759 297.259 887.04 296.96 886.126 296.96C885.099 296.96 884.24 297.315 883.55 298.024C882.878 298.733 882.542 299.797 882.542 301.216V309H880.106V295H882.542V296.876C883.494 295.383 884.884 294.636 886.714 294.636C888.599 294.636 889.971 295.429 890.83 297.016C891.8 295.429 893.266 294.636 895.226 294.636ZM905.1 292.452C904.633 292.452 904.241 292.293 903.924 291.976C903.606 291.659 903.448 291.276 903.448 290.828C903.448 290.38 903.606 289.997 903.924 289.68C904.241 289.344 904.633 289.176 905.1 289.176C905.548 289.176 905.93 289.344 906.248 289.68C906.565 289.997 906.724 290.38 906.724 290.828C906.724 291.276 906.565 291.659 906.248 291.976C905.93 292.293 905.548 292.452 905.1 292.452ZM903.868 309V295H906.304V309H903.868ZM910.02 309V288.56H912.456V309H910.02ZM916.172 309V288.56H918.608V309H916.172ZM923.557 292.452C923.09 292.452 922.698 292.293 922.381 291.976C922.063 291.659 921.905 291.276 921.905 290.828C921.905 290.38 922.063 289.997 922.381 289.68C922.698 289.344 923.09 289.176 923.557 289.176C924.005 289.176 924.387 289.344 924.705 289.68C925.022 289.997 925.181 290.38 925.181 290.828C925.181 291.276 925.022 291.659 924.705 291.976C924.387 292.293 924.005 292.452 923.557 292.452ZM922.325 309V295H924.761V309H922.325ZM940.293 307.236C938.856 308.655 937.11 309.364 935.057 309.364C933.004 309.364 931.258 308.655 929.821 307.236C928.402 305.817 927.693 304.072 927.693 302C927.693 299.928 928.402 298.183 929.821 296.764C931.258 295.345 933.004 294.636 935.057 294.636C937.11 294.636 938.856 295.345 940.293 296.764C941.73 298.183 942.449 299.928 942.449 302C942.449 304.072 941.73 305.817 940.293 307.236ZM935.057 306.984C936.457 306.984 937.633 306.508 938.585 305.556C939.537 304.604 940.013 303.419 940.013 302C940.013 300.581 939.537 299.396 938.585 298.444C937.633 297.492 936.457 297.016 935.057 297.016C933.676 297.016 932.509 297.492 931.557 298.444C930.605 299.396 930.129 300.581 930.129 302C930.129 303.419 930.605 304.604 931.557 305.556C932.509 306.508 933.676 306.984 935.057 306.984ZM952.293 294.636C953.935 294.636 955.251 295.159 956.241 296.204C957.23 297.231 957.725 298.631 957.725 300.404V309H955.289V300.544C955.289 299.405 954.981 298.528 954.365 297.912C953.749 297.277 952.899 296.96 951.817 296.96C950.603 296.96 949.623 297.343 948.877 298.108C948.13 298.855 947.757 300.012 947.757 301.58V309H945.321V295H947.757V297.016C948.746 295.429 950.258 294.636 952.293 294.636Z" fill="#F0F0F0"/>
<path d="M967.75 301.5H978.25M973 296.25V306.75" stroke="#FA935B" stroke-width="1.5" stroke-linecap="round" stroke-linejoin="round"/>
<path d="M795.668 293.249L800.501 288.416M800.501 288.416L805.335 293.249M800.501 288.416V312.583" stroke="white" stroke-width="2" stroke-linecap="round" stroke-linejoin="round"/>
<g filter="url(#filter1_f_285_4231)">
<ellipse cx="961.661" cy="140.568" rx="110.396" ry="9.98582" transform="rotate(25.8647 961.661 140.568)" fill="#D9D9D9"/>
</g>
<g filter="url(#filter2_f_285_4231)">
<ellipse cx="1249.69" cy="258.146" rx="110.396" ry="9.98582" transform="rotate(25.8647 1249.69 258.146)" fill="#D9D9D9"/>
</g>
</g>
<g clip-path="url(#clip1_285_4231)">
<g filter="url(#filter3_i_285_4231)">
<rect y="63" width="392" height="309" rx="20" fill="white" fill-opacity="0.02"/>
</g>
<rect x="0.5" y="63.5" width="391" height="308" rx="19.5" stroke="url(#paint3_linear_285_4231)"/>
<path d="M73.1105 334.197C71.5073 334.197 70.1813 333.667 69.1326 332.608C68.094 331.55 67.5748 330.249 67.5748 328.706C67.5748 327.163 68.094 325.863 69.1326 324.804C70.1813 323.745 71.5073 323.216 73.1105 323.216C74.0785 323.216 74.9658 323.448 75.7725 323.912C76.5893 324.375 77.2245 325.001 77.6783 325.787L76.4531 326.498C76.1506 325.913 75.6969 325.449 75.0919 325.107C74.497 324.754 73.8365 324.577 73.1105 324.577C71.8904 324.577 70.8922 324.97 70.1158 325.757C69.3494 326.543 68.9663 327.526 68.9663 328.706C68.9663 329.876 69.3494 330.854 70.1158 331.64C70.8922 332.427 71.8904 332.82 73.1105 332.82C73.8365 332.82 74.497 332.649 75.0919 332.306C75.6969 331.953 76.1506 331.489 76.4531 330.914L77.6783 331.61C77.2346 332.397 76.6044 333.027 75.7876 333.501C74.9709 333.965 74.0785 334.197 73.1105 334.197ZM79.1795 334V322.959H80.4954V334H79.1795ZM83.1684 325.061C82.9163 325.061 82.7046 324.975 82.5331 324.804C82.3617 324.633 82.276 324.426 82.276 324.184C82.276 323.942 82.3617 323.735 82.5331 323.564C82.7046 323.382 82.9163 323.291 83.1684 323.291C83.4104 323.291 83.6171 323.382 83.7885 323.564C83.9599 323.735 84.0456 323.942 84.0456 324.184C84.0456 324.426 83.9599 324.633 83.7885 324.804C83.6171 324.975 83.4104 325.061 83.1684 325.061ZM82.5029 334V326.438H83.8188V334H82.5029ZM86.7489 330.824C86.88 331.499 87.1875 332.024 87.6715 332.397C88.1656 332.77 88.7706 332.956 89.4865 332.956C90.4848 332.956 91.2108 332.588 91.6645 331.852L92.7838 332.487C92.0477 333.627 90.9385 334.197 89.4563 334.197C88.2563 334.197 87.2783 333.824 86.522 333.077C85.7758 332.321 85.4028 331.368 85.4028 330.219C85.4028 329.079 85.7708 328.131 86.5069 327.375C87.243 326.619 88.1958 326.241 89.3655 326.241C90.4747 326.241 91.3771 326.634 92.0729 327.421C92.7787 328.197 93.1316 329.135 93.1316 330.234C93.1316 330.425 93.1165 330.622 93.0863 330.824H86.7489ZM89.3655 327.481C88.6597 327.481 88.0748 327.683 87.611 328.086C87.1472 328.479 86.8598 329.009 86.7489 329.674H91.8006C91.6897 328.958 91.4074 328.414 90.9536 328.041C90.4999 327.668 89.9705 327.481 89.3655 327.481ZM98.4104 326.241C99.2977 326.241 100.009 326.523 100.543 327.088C101.077 327.642 101.345 328.399 101.345 329.357V334H100.029V329.432C100.029 328.817 99.8624 328.343 99.5296 328.01C99.1969 327.668 98.7381 327.496 98.1532 327.496C97.4978 327.496 96.9685 327.703 96.5651 328.116C96.1618 328.52 95.9601 329.145 95.9601 329.992V334H94.6442V326.438H95.9601V327.526C96.4945 326.669 97.3113 326.241 98.4104 326.241ZM107.296 327.708H105.284V331.807C105.284 332.18 105.355 332.447 105.496 332.608C105.647 332.76 105.874 332.84 106.176 332.85C106.479 332.85 106.852 332.84 107.296 332.82V334C106.146 334.151 105.304 334.061 104.77 333.728C104.235 333.385 103.968 332.745 103.968 331.807V327.708H102.471V326.438H103.968V324.713L105.284 324.32V326.438H107.296V327.708ZM116.657 323.412C117.635 323.412 118.447 323.74 119.092 324.396C119.747 325.041 120.075 325.848 120.075 326.816C120.075 327.774 119.747 328.58 119.092 329.236C118.447 329.891 117.635 330.219 116.657 330.219H114.222V334H112.815V323.412H116.657ZM116.657 328.903C117.242 328.903 117.726 328.706 118.109 328.313C118.492 327.91 118.684 327.411 118.684 326.816C118.684 326.211 118.492 325.711 118.109 325.318C117.726 324.925 117.242 324.728 116.657 324.728H114.222V328.903H116.657ZM127.407 333.047C126.631 333.813 125.688 334.197 124.579 334.197C123.47 334.197 122.527 333.813 121.75 333.047C120.984 332.281 120.601 331.338 120.601 330.219C120.601 329.099 120.984 328.157 121.75 327.39C122.527 326.624 123.47 326.241 124.579 326.241C125.688 326.241 126.631 326.624 127.407 327.39C128.184 328.157 128.572 329.099 128.572 330.219C128.572 331.338 128.184 332.281 127.407 333.047ZM124.579 332.911C125.335 332.911 125.97 332.654 126.484 332.14C126.999 331.625 127.256 330.985 127.256 330.219C127.256 329.452 126.999 328.812 126.484 328.298C125.97 327.784 125.335 327.526 124.579 327.526C123.833 327.526 123.202 327.784 122.688 328.298C122.174 328.812 121.917 329.452 121.917 330.219C121.917 330.985 122.174 331.625 122.688 332.14C123.202 332.654 123.833 332.911 124.579 332.911ZM131.439 327.708C131.872 326.77 132.659 326.301 133.798 326.301V327.678C133.153 327.647 132.598 327.819 132.135 328.192C131.671 328.565 131.439 329.165 131.439 329.992V334H130.123V326.438H131.439V327.708ZM139.377 327.708H137.366V331.807C137.366 332.18 137.436 332.447 137.577 332.608C137.729 332.76 137.955 332.84 138.258 332.85C138.56 332.85 138.933 332.84 139.377 332.82V334C138.228 334.151 137.386 334.061 136.851 333.728C136.317 333.385 136.05 332.745 136.05 331.807V327.708H134.552V326.438H136.05V324.713L137.366 324.32V326.438H139.377V327.708ZM144.438 324.486C143.107 324.375 142.442 324.95 142.442 326.211V326.438H144.438V327.708H142.442V334H141.126V327.708H139.916V326.438H141.126V326.211C141.126 325.192 141.408 324.421 141.973 323.896C142.547 323.372 143.369 323.145 144.438 323.216V324.486ZM151.409 333.047C150.633 333.813 149.69 334.197 148.581 334.197C147.472 334.197 146.529 333.813 145.752 333.047C144.986 332.281 144.603 331.338 144.603 330.219C144.603 329.099 144.986 328.157 145.752 327.39C146.529 326.624 147.472 326.241 148.581 326.241C149.69 326.241 150.633 326.624 151.409 327.39C152.186 328.157 152.574 329.099 152.574 330.219C152.574 331.338 152.186 332.281 151.409 333.047ZM148.581 332.911C149.337 332.911 149.972 332.654 150.487 332.14C151.001 331.625 151.258 330.985 151.258 330.219C151.258 329.452 151.001 328.812 150.487 328.298C149.972 327.784 149.337 327.526 148.581 327.526C147.835 327.526 147.204 327.784 146.69 328.298C146.176 328.812 145.919 329.452 145.919 330.219C145.919 330.985 146.176 331.625 146.69 332.14C147.204 332.654 147.835 332.911 148.581 332.911ZM154.125 334V322.959H155.441V334H154.125ZM158.114 325.061C157.862 325.061 157.65 324.975 157.479 324.804C157.307 324.633 157.222 324.426 157.222 324.184C157.222 323.942 157.307 323.735 157.479 323.564C157.65 323.382 157.862 323.291 158.114 323.291C158.356 323.291 158.563 323.382 158.734 323.564C158.905 323.735 158.991 323.942 158.991 324.184C158.991 324.426 158.905 324.633 158.734 324.804C158.563 324.975 158.356 325.061 158.114 325.061ZM157.448 334V326.438H158.764V334H157.448ZM167.155 333.047C166.378 333.813 165.435 334.197 164.326 334.197C163.217 334.197 162.274 333.813 161.498 333.047C160.731 332.281 160.348 331.338 160.348 330.219C160.348 329.099 160.731 328.157 161.498 327.39C162.274 326.624 163.217 326.241 164.326 326.241C165.435 326.241 166.378 326.624 167.155 327.39C167.931 328.157 168.319 329.099 168.319 330.219C168.319 331.338 167.931 332.281 167.155 333.047ZM164.326 332.911C165.082 332.911 165.718 332.654 166.232 332.14C166.746 331.625 167.003 330.985 167.003 330.219C167.003 329.452 166.746 328.812 166.232 328.298C165.718 327.784 165.082 327.526 164.326 327.526C163.58 327.526 162.95 327.784 162.436 328.298C161.921 328.812 161.664 329.452 161.664 330.219C161.664 330.985 161.921 331.625 162.436 332.14C162.95 332.654 163.58 332.911 164.326 332.911ZM170.842 328.479C170.842 328.772 170.989 329.009 171.281 329.19C171.573 329.362 171.926 329.503 172.34 329.614C172.753 329.715 173.167 329.836 173.58 329.977C173.993 330.108 174.346 330.34 174.639 330.672C174.931 330.995 175.077 331.414 175.077 331.928C175.077 332.614 174.81 333.163 174.276 333.576C173.751 333.99 173.076 334.197 172.249 334.197C171.513 334.197 170.883 334.035 170.358 333.713C169.834 333.39 169.461 332.961 169.239 332.427L170.373 331.777C170.494 332.14 170.721 332.427 171.054 332.639C171.387 332.85 171.785 332.956 172.249 332.956C172.683 332.956 173.041 332.876 173.323 332.714C173.605 332.543 173.746 332.281 173.746 331.928C173.746 331.635 173.6 331.404 173.308 331.232C173.015 331.051 172.662 330.909 172.249 330.809C171.836 330.698 171.422 330.572 171.009 330.43C170.595 330.289 170.242 330.057 169.95 329.735C169.658 329.412 169.511 328.999 169.511 328.494C169.511 327.839 169.763 327.3 170.268 326.876C170.782 326.453 171.422 326.241 172.188 326.241C172.804 326.241 173.348 326.382 173.822 326.664C174.306 326.937 174.669 327.32 174.911 327.814L173.807 328.434C173.535 327.789 172.995 327.466 172.188 327.466C171.815 327.466 171.498 327.557 171.236 327.738C170.973 327.91 170.842 328.157 170.842 328.479Z" fill="#F0F0F0" fill-opacity="0.7"/>
<path d="M32 259C73.2646 259 54 196.5 129.5 216.5C173 230.5 154.224 131 195.489 131C236.754 131 211.5 211.122 277.229 211.122C318.494 211.122 325.735 107 367 107" stroke="#863C13" stroke-width="5.81515" stroke-linecap="round"/>
<circle cx="190.5" cy="130.5" r="10.5" fill="#7B350E" stroke="white" stroke-width="2"/>
<path d="M72.544 289.4H74.784V309H72.208V292.2L68.036 293.432L67.392 291.192L72.544 289.4ZM91.3725 306.592C90.0471 308.44 88.1898 309.364 85.8005 309.364C83.4111 309.364 81.5538 308.44 80.2285 306.592C78.9031 304.744 78.2405 302.28 78.2405 299.2C78.2405 296.12 78.9031 293.656 80.2285 291.808C81.5538 289.96 83.4111 289.036 85.8005 289.036C88.1898 289.036 90.0471 289.96 91.3725 291.808C92.6978 293.656 93.3605 296.12 93.3605 299.2C93.3605 302.28 92.6978 304.744 91.3725 306.592ZM82.1325 304.828C82.9911 306.153 84.2138 306.816 85.8005 306.816C87.3871 306.816 88.6098 306.153 89.4685 304.828C90.3458 303.503 90.7845 301.627 90.7845 299.2C90.7845 296.773 90.3458 294.897 89.4685 293.572C88.6098 292.228 87.3871 291.556 85.8005 291.556C84.2138 291.556 82.9911 292.219 82.1325 293.544C81.2738 294.869 80.8445 296.755 80.8445 299.2C80.8445 301.627 81.2738 303.503 82.1325 304.828ZM108.281 298.024V300.348H103.409V305.22H101.085V300.348H96.2412V298.024H101.085V293.18H103.409V298.024H108.281Z" fill="#F0F0F0"/>
<path d="M213.75 301.5H224.25M219 296.25V306.75" stroke="#FA935B" stroke-width="1.5" stroke-linecap="round" stroke-linejoin="round"/>
<path d="M41.668 293.249L46.5013 288.416M46.5013 288.416L51.3346 293.249M46.5013 288.416V312.583" stroke="white" stroke-width="2" stroke-linecap="round" stroke-linejoin="round"/>
<g filter="url(#filter4_f_285_4231)">
<ellipse cx="207.661" cy="140.568" rx="110.396" ry="9.98582" transform="rotate(25.8647 207.661 140.568)" fill="#D9D9D9"/>
</g>
<g filter="url(#filter5_f_285_4231)">
<ellipse cx="495.692" cy="258.146" rx="110.396" ry="9.98582" transform="rotate(25.8647 495.692 258.146)" fill="#D9D9D9"/>
</g>
</g>
<g clip-path="url(#clip2_285_4231)">
<g filter="url(#filter6_i_285_4231)">
<rect x="445" y="458" width="509" height="222" rx="20" fill="white" fill-opacity="0.02"/>
</g>
<rect x="445.5" y="458.5" width="508" height="221" rx="19.5" stroke="url(#paint4_linear_285_4231)"/>
<path d="M484.296 567.5V564.764L493.188 555.692C495.564 553.316 496.752 551.276 496.752 549.572C496.752 548.156 496.32 547.052 495.456 546.26C494.592 545.468 493.536 545.072 492.288 545.072C489.912 545.072 488.184 546.2 487.104 548.456L484.296 546.8C485.088 545.168 486.18 543.932 487.572 543.092C488.988 542.252 490.548 541.832 492.252 541.832C494.364 541.832 496.2 542.528 497.76 543.92C499.32 545.312 500.1 547.184 500.1 549.536C500.1 552.08 498.6 554.852 495.6 557.852L489.156 564.26H500.568V567.5H484.296ZM520.137 564.404C518.433 566.78 516.045 567.968 512.973 567.968C509.901 567.968 507.513 566.78 505.809 564.404C504.105 562.028 503.253 558.86 503.253 554.9C503.253 550.94 504.105 547.772 505.809 545.396C507.513 543.02 509.901 541.832 512.973 541.832C516.045 541.832 518.433 543.02 520.137 545.396C521.841 547.772 522.693 550.94 522.693 554.9C522.693 558.86 521.841 562.028 520.137 564.404ZM508.257 562.136C509.361 563.84 510.933 564.692 512.973 564.692C515.013 564.692 516.585 563.84 517.689 562.136C518.817 560.432 519.381 558.02 519.381 554.9C519.381 551.78 518.817 549.368 517.689 547.664C516.585 545.936 515.013 545.072 512.973 545.072C510.933 545.072 509.361 545.924 508.257 547.628C507.153 549.332 506.601 551.756 506.601 554.9C506.601 558.02 507.153 560.432 508.257 562.136ZM531.273 552.992C529.641 552.992 528.285 552.452 527.205 551.372C526.125 550.292 525.585 548.972 525.585 547.412C525.585 545.876 526.125 544.568 527.205 543.488C528.309 542.384 529.665 541.832 531.273 541.832C532.905 541.832 534.261 542.372 535.341 543.452C536.421 544.532 536.961 545.852 536.961 547.412C536.961 548.972 536.421 550.292 535.341 551.372C534.285 552.452 532.929 552.992 531.273 552.992ZM529.185 549.536C529.737 550.088 530.433 550.364 531.273 550.364C532.113 550.364 532.797 550.076 533.325 549.5C533.877 548.924 534.153 548.228 534.153 547.412C534.153 546.596 533.877 545.912 533.325 545.36C532.797 544.784 532.113 544.496 531.273 544.496C530.433 544.496 529.737 544.784 529.185 545.36C528.657 545.912 528.393 546.596 528.393 547.412C528.393 548.252 528.657 548.96 529.185 549.536ZM527.277 563.936L544.017 545.216L545.781 546.188L529.005 564.944L527.277 563.936ZM546.213 566.312C545.133 567.392 543.777 567.932 542.145 567.932C540.513 567.932 539.157 567.392 538.077 566.312C536.997 565.232 536.457 563.912 536.457 562.352C536.457 560.792 536.997 559.472 538.077 558.392C539.157 557.312 540.513 556.772 542.145 556.772C543.777 556.772 545.133 557.312 546.213 558.392C547.293 559.472 547.833 560.792 547.833 562.352C547.833 563.912 547.293 565.232 546.213 566.312ZM540.057 564.44C540.609 564.992 541.305 565.268 542.145 565.268C542.985 565.268 543.669 564.992 544.197 564.44C544.749 563.864 545.025 563.168 545.025 562.352C545.025 561.536 544.749 560.852 544.197 560.3C543.669 559.724 542.985 559.436 542.145 559.436C541.305 559.436 540.609 559.724 540.057 560.3C539.529 560.852 539.265 561.536 539.265 562.352C539.265 563.168 539.529 563.864 540.057 564.44Z" fill="#F0F0F0"/>
<path d="M490.296 611.336C488.632 611.336 487.232 610.968 486.096 610.232C484.96 609.48 484.16 608.464 483.696 607.184L486.528 605.528C487.184 607.24 488.472 608.096 490.392 608.096C491.32 608.096 492 607.928 492.432 607.592C492.864 607.256 493.08 606.832 493.08 606.32C493.08 605.728 492.816 605.272 492.288 604.952C491.76 604.616 490.816 604.256 489.456 603.872C488.704 603.648 488.064 603.424 487.536 603.2C487.024 602.976 486.504 602.68 485.976 602.312C485.464 601.928 485.072 601.448 484.8 600.872C484.528 600.296 484.392 599.624 484.392 598.856C484.392 597.336 484.928 596.128 486 595.232C487.088 594.32 488.392 593.864 489.912 593.864C491.272 593.864 492.464 594.2 493.488 594.872C494.528 595.528 495.336 596.448 495.912 597.632L493.128 599.24C492.456 597.8 491.384 597.08 489.912 597.08C489.224 597.08 488.68 597.24 488.28 597.56C487.896 597.864 487.704 598.264 487.704 598.76C487.704 599.288 487.92 599.72 488.352 600.056C488.8 600.376 489.648 600.728 490.896 601.112C491.408 601.272 491.792 601.4 492.048 601.496C492.32 601.576 492.68 601.712 493.128 601.904C493.592 602.08 493.944 602.248 494.184 602.408C494.44 602.568 494.728 602.784 495.048 603.056C495.368 603.328 495.608 603.608 495.768 603.896C495.944 604.184 496.088 604.536 496.2 604.952C496.328 605.352 496.392 605.792 496.392 606.272C496.392 607.824 495.824 609.056 494.688 609.968C493.568 610.88 492.104 611.336 490.296 611.336ZM504.921 601.976H502.209V606.968C502.209 607.384 502.313 607.688 502.521 607.88C502.729 608.072 503.033 608.184 503.433 608.216C503.833 608.232 504.329 608.224 504.921 608.192V611C502.793 611.24 501.289 611.04 500.409 610.4C499.545 609.76 499.113 608.616 499.113 606.968V601.976H497.025V599H499.113V596.576L502.209 595.64V599H504.921V601.976ZM510.387 601.064C510.675 600.296 511.147 599.72 511.803 599.336C512.475 598.952 513.219 598.76 514.035 598.76V602.216C513.091 602.104 512.243 602.296 511.491 602.792C510.755 603.288 510.387 604.112 510.387 605.264V611H507.291V599H510.387V601.064ZM517.382 597.56C516.87 597.56 516.422 597.376 516.038 597.008C515.67 596.624 515.486 596.176 515.486 595.664C515.486 595.152 515.67 594.704 516.038 594.32C516.422 593.936 516.87 593.744 517.382 593.744C517.91 593.744 518.358 593.936 518.726 594.32C519.11 594.704 519.302 595.152 519.302 595.664C519.302 596.176 519.11 596.624 518.726 597.008C518.358 597.376 517.91 597.56 517.382 597.56ZM515.846 611V599H518.942V611H515.846ZM532.839 611H529.239L524.871 605.552V611H521.775V594.2H524.871V604.28L528.999 599H532.695L527.871 604.928L532.839 611ZM536.134 606.272C536.55 607.776 537.678 608.528 539.518 608.528C540.702 608.528 541.598 608.128 542.206 607.328L544.702 608.768C543.518 610.48 541.774 611.336 539.47 611.336C537.486 611.336 535.894 610.736 534.694 609.536C533.494 608.336 532.894 606.824 532.894 605C532.894 603.192 533.486 601.688 534.67 600.488C535.854 599.272 537.374 598.664 539.23 598.664C540.99 598.664 542.438 599.272 543.574 600.488C544.726 601.704 545.302 603.208 545.302 605C545.302 605.4 545.262 605.824 545.182 606.272H536.134ZM536.086 603.872H542.206C542.03 603.056 541.662 602.448 541.102 602.048C540.558 601.648 539.934 601.448 539.23 601.448C538.398 601.448 537.71 601.664 537.166 602.096C536.622 602.512 536.262 603.104 536.086 603.872ZM562.823 611L559.439 605.168H556.919V611H553.607V594.2H560.327C561.879 594.2 563.199 594.744 564.287 595.832C565.375 596.92 565.919 598.232 565.919 599.768C565.919 600.808 565.623 601.776 565.031 602.672C564.439 603.552 563.655 604.216 562.679 604.664L566.399 611H562.823ZM556.919 597.296V602.264H560.327C560.951 602.264 561.487 602.024 561.935 601.544C562.383 601.048 562.607 600.456 562.607 599.768C562.607 599.08 562.383 598.496 561.935 598.016C561.487 597.536 560.951 597.296 560.327 597.296H556.919ZM576.716 599H579.812V611H576.716V609.584C575.788 610.752 574.484 611.336 572.804 611.336C571.204 611.336 569.828 610.728 568.676 609.512C567.54 608.28 566.972 606.776 566.972 605C566.972 603.224 567.54 601.728 568.676 600.512C569.828 599.28 571.204 598.664 572.804 598.664C574.484 598.664 575.788 599.248 576.716 600.416V599ZM571.004 607.448C571.628 608.072 572.42 608.384 573.38 608.384C574.34 608.384 575.132 608.072 575.756 607.448C576.396 606.808 576.716 605.992 576.716 605C576.716 604.008 576.396 603.2 575.756 602.576C575.132 601.936 574.34 601.616 573.38 601.616C572.42 601.616 571.628 601.936 571.004 602.576C570.38 603.2 570.068 604.008 570.068 605C570.068 605.992 570.38 606.808 571.004 607.448ZM589.483 601.976H586.771V606.968C586.771 607.384 586.875 607.688 587.083 607.88C587.291 608.072 587.595 608.184 587.995 608.216C588.395 608.232 588.891 608.224 589.483 608.192V611C587.355 611.24 585.851 611.04 584.971 610.4C584.107 609.76 583.675 608.616 583.675 606.968V601.976H581.587V599H583.675V596.576L586.771 595.64V599H589.483V601.976ZM593.907 606.272C594.323 607.776 595.451 608.528 597.291 608.528C598.475 608.528 599.371 608.128 599.979 607.328L602.475 608.768C601.291 610.48 599.547 611.336 597.243 611.336C595.259 611.336 593.667 610.736 592.467 609.536C591.267 608.336 590.667 606.824 590.667 605C590.667 603.192 591.259 601.688 592.443 600.488C593.627 599.272 595.147 598.664 597.003 598.664C598.763 598.664 600.211 599.272 601.347 600.488C602.499 601.704 603.075 603.208 603.075 605C603.075 605.4 603.035 605.824 602.955 606.272H593.907ZM593.859 603.872H599.979C599.803 603.056 599.435 602.448 598.875 602.048C598.331 601.648 597.707 601.448 597.003 601.448C596.171 601.448 595.483 601.664 594.939 602.096C594.395 602.512 594.035 603.104 593.859 603.872Z" fill="#F0F0F0" fill-opacity="0.7"/>
<path d="M488.656 637.182C487.172 637.182 485.945 636.692 484.974 635.712C484.013 634.732 483.532 633.528 483.532 632.1C483.532 630.672 484.013 629.468 484.974 628.488C485.945 627.508 487.172 627.018 488.656 627.018C489.552 627.018 490.373 627.233 491.12 627.662C491.876 628.091 492.464 628.67 492.884 629.398L491.75 630.056C491.47 629.515 491.05 629.085 490.49 628.768C489.939 628.441 489.328 628.278 488.656 628.278C487.527 628.278 486.603 628.642 485.884 629.37C485.175 630.098 484.82 631.008 484.82 632.1C484.82 633.183 485.175 634.088 485.884 634.816C486.603 635.544 487.527 635.908 488.656 635.908C489.328 635.908 489.939 635.749 490.49 635.432C491.05 635.105 491.47 634.676 491.75 634.144L492.884 634.788C492.473 635.516 491.89 636.099 491.134 636.538C490.378 636.967 489.552 637.182 488.656 637.182ZM500.113 636.118C499.395 636.827 498.522 637.182 497.495 637.182C496.469 637.182 495.596 636.827 494.877 636.118C494.168 635.409 493.813 634.536 493.813 633.5C493.813 632.464 494.168 631.591 494.877 630.882C495.596 630.173 496.469 629.818 497.495 629.818C498.522 629.818 499.395 630.173 500.113 630.882C500.832 631.591 501.191 632.464 501.191 633.5C501.191 634.536 500.832 635.409 500.113 636.118ZM497.495 635.992C498.195 635.992 498.783 635.754 499.259 635.278C499.735 634.802 499.973 634.209 499.973 633.5C499.973 632.791 499.735 632.198 499.259 631.722C498.783 631.246 498.195 631.008 497.495 631.008C496.805 631.008 496.221 631.246 495.745 631.722C495.269 632.198 495.031 632.791 495.031 633.5C495.031 634.209 495.269 634.802 495.745 635.278C496.221 635.754 496.805 635.992 497.495 635.992ZM510.187 629.818C510.971 629.818 511.606 630.075 512.091 630.588C512.576 631.092 512.819 631.778 512.819 632.646V637H511.601V632.688C511.601 632.147 511.461 631.727 511.181 631.428C510.901 631.129 510.528 630.98 510.061 630.98C509.538 630.98 509.118 631.157 508.801 631.512C508.493 631.857 508.339 632.389 508.339 633.108V637H507.121V632.688C507.121 632.147 506.986 631.727 506.715 631.428C506.454 631.129 506.094 630.98 505.637 630.98C505.124 630.98 504.694 631.157 504.349 631.512C504.013 631.867 503.845 632.399 503.845 633.108V637H502.627V630H503.845V630.938C504.321 630.191 505.016 629.818 505.931 629.818C506.874 629.818 507.56 630.215 507.989 631.008C508.474 630.215 509.207 629.818 510.187 629.818ZM522.068 629.818C522.852 629.818 523.487 630.075 523.972 630.588C524.457 631.092 524.7 631.778 524.7 632.646V637H523.482V632.688C523.482 632.147 523.342 631.727 523.062 631.428C522.782 631.129 522.409 630.98 521.942 630.98C521.419 630.98 520.999 631.157 520.682 631.512C520.374 631.857 520.22 632.389 520.22 633.108V637H519.002V632.688C519.002 632.147 518.867 631.727 518.596 631.428C518.335 631.129 517.975 630.98 517.518 630.98C517.005 630.98 516.575 631.157 516.23 631.512C515.894 631.867 515.726 632.399 515.726 633.108V637H514.508V630H515.726V630.938C516.202 630.191 516.897 629.818 517.812 629.818C518.755 629.818 519.441 630.215 519.87 631.008C520.355 630.215 521.088 629.818 522.068 629.818ZM527.005 628.726C526.772 628.726 526.576 628.647 526.417 628.488C526.258 628.329 526.179 628.138 526.179 627.914C526.179 627.69 526.258 627.499 526.417 627.34C526.576 627.172 526.772 627.088 527.005 627.088C527.229 627.088 527.42 627.172 527.579 627.34C527.738 627.499 527.817 627.69 527.817 627.914C527.817 628.138 527.738 628.329 527.579 628.488C527.42 628.647 527.229 628.726 527.005 628.726ZM526.389 637V630H527.607V637H526.389ZM533.273 631.176H531.411V634.97C531.411 635.315 531.476 635.563 531.607 635.712C531.747 635.852 531.957 635.927 532.237 635.936C532.517 635.936 532.862 635.927 533.273 635.908V637C532.209 637.14 531.43 637.056 530.935 636.748C530.44 636.431 530.193 635.838 530.193 634.97V631.176H528.807V630H530.193V628.404L531.411 628.04V630H533.273V631.176ZM538.154 631.176H536.292V634.97C536.292 635.315 536.357 635.563 536.488 635.712C536.628 635.852 536.838 635.927 537.118 635.936C537.398 635.936 537.743 635.927 538.154 635.908V637C537.09 637.14 536.311 637.056 535.816 636.748C535.321 636.431 535.074 635.838 535.074 634.97V631.176H533.688V630H535.074V628.404L536.292 628.04V630H538.154V631.176ZM540.094 634.06C540.216 634.685 540.5 635.171 540.948 635.516C541.406 635.861 541.966 636.034 542.628 636.034C543.552 636.034 544.224 635.693 544.644 635.012L545.68 635.6C544.999 636.655 543.972 637.182 542.6 637.182C541.49 637.182 540.584 636.837 539.884 636.146C539.194 635.446 538.848 634.564 538.848 633.5C538.848 632.445 539.189 631.568 539.87 630.868C540.552 630.168 541.434 629.818 542.516 629.818C543.543 629.818 544.378 630.182 545.022 630.91C545.676 631.629 546.002 632.497 546.002 633.514C546.002 633.691 545.988 633.873 545.96 634.06H540.094ZM542.516 630.966C541.863 630.966 541.322 631.153 540.892 631.526C540.463 631.89 540.197 632.38 540.094 632.996H544.77C544.668 632.333 544.406 631.829 543.986 631.484C543.566 631.139 543.076 630.966 542.516 630.966ZM553.185 627.2H554.403V637H553.185V635.796C552.578 636.72 551.696 637.182 550.539 637.182C549.559 637.182 548.724 636.827 548.033 636.118C547.342 635.399 546.997 634.527 546.997 633.5C546.997 632.473 547.342 631.605 548.033 630.896C548.724 630.177 549.559 629.818 550.539 629.818C551.696 629.818 552.578 630.28 553.185 631.204V627.2ZM550.693 636.006C551.402 636.006 551.995 635.768 552.471 635.292C552.947 634.807 553.185 634.209 553.185 633.5C553.185 632.791 552.947 632.198 552.471 631.722C551.995 631.237 551.402 630.994 550.693 630.994C549.993 630.994 549.405 631.237 548.929 631.722C548.453 632.198 548.215 632.791 548.215 633.5C548.215 634.209 548.453 634.807 548.929 635.292C549.405 635.768 549.993 636.006 550.693 636.006ZM563.556 631.176H561.694V634.97C561.694 635.315 561.76 635.563 561.89 635.712C562.03 635.852 562.24 635.927 562.52 635.936C562.8 635.936 563.146 635.927 563.556 635.908V637C562.492 637.14 561.713 637.056 561.218 636.748C560.724 636.431 560.476 635.838 560.476 634.97V631.176H559.09V630H560.476V628.404L561.694 628.04V630H563.556V631.176ZM570.551 636.118C569.832 636.827 568.959 637.182 567.933 637.182C566.906 637.182 566.033 636.827 565.315 636.118C564.605 635.409 564.251 634.536 564.251 633.5C564.251 632.464 564.605 631.591 565.315 630.882C566.033 630.173 566.906 629.818 567.933 629.818C568.959 629.818 569.832 630.173 570.551 630.882C571.269 631.591 571.629 632.464 571.629 633.5C571.629 634.536 571.269 635.409 570.551 636.118ZM567.933 635.992C568.633 635.992 569.221 635.754 569.697 635.278C570.173 634.802 570.411 634.209 570.411 633.5C570.411 632.791 570.173 632.198 569.697 631.722C569.221 631.246 568.633 631.008 567.933 631.008C567.242 631.008 566.659 631.246 566.183 631.722C565.707 632.198 565.469 632.791 565.469 633.5C565.469 634.209 565.707 634.802 566.183 635.278C566.659 635.754 567.242 635.992 567.933 635.992ZM580.051 629.818C580.872 629.818 581.53 630.079 582.025 630.602C582.519 631.115 582.767 631.815 582.767 632.702V637H581.549V632.772C581.549 632.203 581.395 631.764 581.087 631.456C580.779 631.139 580.354 630.98 579.813 630.98C579.206 630.98 578.716 631.171 578.343 631.554C577.969 631.927 577.783 632.506 577.783 633.29V637H576.565V627.2H577.783V631.008C578.277 630.215 579.033 629.818 580.051 629.818ZM585.321 634.06C585.442 634.685 585.727 635.171 586.175 635.516C586.632 635.861 587.192 636.034 587.855 636.034C588.779 636.034 589.451 635.693 589.871 635.012L590.907 635.6C590.226 636.655 589.199 637.182 587.827 637.182C586.716 637.182 585.811 636.837 585.111 636.146C584.42 635.446 584.075 634.564 584.075 633.5C584.075 632.445 584.416 631.568 585.097 630.868C585.778 630.168 586.66 629.818 587.743 629.818C588.77 629.818 589.605 630.182 590.249 630.91C590.902 631.629 591.229 632.497 591.229 633.514C591.229 633.691 591.215 633.873 591.187 634.06H585.321ZM587.743 630.966C587.09 630.966 586.548 631.153 586.119 631.526C585.69 631.89 585.424 632.38 585.321 632.996H589.997C589.894 632.333 589.633 631.829 589.213 631.484C588.793 631.139 588.303 630.966 587.743 630.966ZM592.629 637V626.78H593.847V637H592.629ZM599.569 629.818C600.549 629.818 601.385 630.177 602.075 630.896C602.766 631.605 603.111 632.473 603.111 633.5C603.111 634.527 602.766 635.399 602.075 636.118C601.385 636.827 600.549 637.182 599.569 637.182C598.412 637.182 597.53 636.72 596.923 635.796V639.8H595.705V630H596.923V631.204C597.53 630.28 598.412 629.818 599.569 629.818ZM599.415 636.006C600.115 636.006 600.703 635.768 601.179 635.292C601.655 634.807 601.893 634.209 601.893 633.5C601.893 632.791 601.655 632.198 601.179 631.722C600.703 631.237 600.115 630.994 599.415 630.994C598.706 630.994 598.113 631.237 597.637 631.722C597.161 632.198 596.923 632.791 596.923 633.5C596.923 634.209 597.161 634.807 597.637 635.292C598.113 635.768 598.706 636.006 599.415 636.006ZM605.181 628.726C604.947 628.726 604.751 628.647 604.593 628.488C604.434 628.329 604.355 628.138 604.355 627.914C604.355 627.69 604.434 627.499 604.593 627.34C604.751 627.172 604.947 627.088 605.181 627.088C605.405 627.088 605.596 627.172 605.755 627.34C605.913 627.499 605.993 627.69 605.993 627.914C605.993 628.138 605.913 628.329 605.755 628.488C605.596 628.647 605.405 628.726 605.181 628.726ZM604.565 637V630H605.783V637H604.565ZM611.127 629.818C611.948 629.818 612.606 630.079 613.101 630.602C613.595 631.115 613.843 631.815 613.843 632.702V637H612.625V632.772C612.625 632.203 612.471 631.764 612.163 631.456C611.855 631.139 611.43 630.98 610.889 630.98C610.282 630.98 609.792 631.171 609.419 631.554C609.045 631.927 608.859 632.506 608.859 633.29V637H607.641V630H608.859V631.008C609.353 630.215 610.109 629.818 611.127 629.818ZM621.353 630H622.557V636.706C622.557 637.742 622.207 638.545 621.507 639.114C620.807 639.693 619.967 639.982 618.987 639.982C618.203 639.982 617.526 639.833 616.957 639.534C616.388 639.245 615.958 638.825 615.669 638.274L616.733 637.672C617.116 638.456 617.876 638.848 619.015 638.848C619.743 638.848 620.312 638.657 620.723 638.274C621.143 637.891 621.353 637.369 621.353 636.706V635.712C620.737 636.645 619.86 637.112 618.721 637.112C617.722 637.112 616.878 636.757 616.187 636.048C615.496 635.339 615.151 634.475 615.151 633.458C615.151 632.441 615.496 631.582 616.187 630.882C616.878 630.173 617.722 629.818 618.721 629.818C619.869 629.818 620.746 630.28 621.353 631.204V630ZM617.083 635.236C617.559 635.712 618.152 635.95 618.861 635.95C619.57 635.95 620.163 635.712 620.639 635.236C621.115 634.76 621.353 634.167 621.353 633.458C621.353 632.758 621.115 632.17 620.639 631.694C620.163 631.218 619.57 630.98 618.861 630.98C618.152 630.98 617.559 631.218 617.083 631.694C616.607 632.17 616.369 632.758 616.369 633.458C616.369 634.167 616.607 634.76 617.083 635.236ZM631.193 637.182C630.138 637.182 629.261 636.832 628.561 636.132C627.861 635.423 627.511 634.545 627.511 633.5C627.511 632.455 627.861 631.582 628.561 630.882C629.261 630.173 630.138 629.818 631.193 629.818C631.883 629.818 632.504 629.986 633.055 630.322C633.605 630.649 634.016 631.092 634.287 631.652L633.265 632.24C633.087 631.867 632.812 631.568 632.439 631.344C632.075 631.12 631.659 631.008 631.193 631.008C630.493 631.008 629.905 631.246 629.429 631.722C628.962 632.198 628.729 632.791 628.729 633.5C628.729 634.2 628.962 634.788 629.429 635.264C629.905 635.74 630.493 635.978 631.193 635.978C631.659 635.978 632.079 635.871 632.453 635.656C632.826 635.432 633.111 635.133 633.307 634.76L634.343 635.362C634.044 635.913 633.615 636.356 633.055 636.692C632.495 637.019 631.874 637.182 631.193 637.182ZM641.357 636.118C640.639 636.827 639.766 637.182 638.739 637.182C637.713 637.182 636.84 636.827 636.121 636.118C635.412 635.409 635.057 634.536 635.057 633.5C635.057 632.464 635.412 631.591 636.121 630.882C636.84 630.173 637.713 629.818 638.739 629.818C639.766 629.818 640.639 630.173 641.357 630.882C642.076 631.591 642.435 632.464 642.435 633.5C642.435 634.536 642.076 635.409 641.357 636.118ZM638.739 635.992C639.439 635.992 640.027 635.754 640.503 635.278C640.979 634.802 641.217 634.209 641.217 633.5C641.217 632.791 640.979 632.198 640.503 631.722C640.027 631.246 639.439 631.008 638.739 631.008C638.049 631.008 637.465 631.246 636.989 631.722C636.513 632.198 636.275 632.791 636.275 633.5C636.275 634.209 636.513 634.802 636.989 635.278C637.465 635.754 638.049 635.992 638.739 635.992ZM651.431 629.818C652.215 629.818 652.85 630.075 653.335 630.588C653.821 631.092 654.063 631.778 654.063 632.646V637H652.845V632.688C652.845 632.147 652.705 631.727 652.425 631.428C652.145 631.129 651.772 630.98 651.305 630.98C650.783 630.98 650.363 631.157 650.045 631.512C649.737 631.857 649.583 632.389 649.583 633.108V637H648.365V632.688C648.365 632.147 648.23 631.727 647.959 631.428C647.698 631.129 647.339 630.98 646.881 630.98C646.368 630.98 645.939 631.157 645.593 631.512C645.257 631.867 645.089 632.399 645.089 633.108V637H643.871V630H645.089V630.938C645.565 630.191 646.261 629.818 647.175 629.818C648.118 629.818 648.804 630.215 649.233 631.008C649.719 630.215 650.451 629.818 651.431 629.818ZM659.616 629.818C660.596 629.818 661.431 630.177 662.122 630.896C662.813 631.605 663.158 632.473 663.158 633.5C663.158 634.527 662.813 635.399 662.122 636.118C661.431 636.827 660.596 637.182 659.616 637.182C658.459 637.182 657.577 636.72 656.97 635.796V639.8H655.752V630H656.97V631.204C657.577 630.28 658.459 629.818 659.616 629.818ZM659.462 636.006C660.162 636.006 660.75 635.768 661.226 635.292C661.702 634.807 661.94 634.209 661.94 633.5C661.94 632.791 661.702 632.198 661.226 631.722C660.75 631.237 660.162 630.994 659.462 630.994C658.753 630.994 658.16 631.237 657.684 631.722C657.208 632.198 656.97 632.791 656.97 633.5C656.97 634.209 657.208 634.807 657.684 635.292C658.16 635.768 658.753 636.006 659.462 636.006ZM670.408 630H671.626V637H670.408V635.796C669.801 636.72 668.919 637.182 667.762 637.182C666.782 637.182 665.946 636.827 665.256 636.118C664.565 635.399 664.22 634.527 664.22 633.5C664.22 632.473 664.565 631.605 665.256 630.896C665.946 630.177 666.782 629.818 667.762 629.818C668.919 629.818 669.801 630.28 670.408 631.204V630ZM667.916 636.006C668.625 636.006 669.218 635.768 669.694 635.292C670.17 634.807 670.408 634.209 670.408 633.5C670.408 632.791 670.17 632.198 669.694 631.722C669.218 631.237 668.625 630.994 667.916 630.994C667.216 630.994 666.628 631.237 666.152 631.722C665.676 632.198 665.438 632.791 665.438 633.5C665.438 634.209 665.676 634.807 666.152 635.292C666.628 635.768 667.216 636.006 667.916 636.006ZM676.957 629.818C677.778 629.818 678.436 630.079 678.931 630.602C679.426 631.115 679.673 631.815 679.673 632.702V637H678.455V632.772C678.455 632.203 678.301 631.764 677.993 631.456C677.685 631.139 677.26 630.98 676.719 630.98C676.112 630.98 675.622 631.171 675.249 631.554C674.876 631.927 674.689 632.506 674.689 633.29V637H673.471V630H674.689V631.008C675.184 630.215 675.94 629.818 676.957 629.818ZM681.989 628.726C681.756 628.726 681.56 628.647 681.401 628.488C681.243 628.329 681.163 628.138 681.163 627.914C681.163 627.69 681.243 627.499 681.401 627.34C681.56 627.172 681.756 627.088 681.989 627.088C682.213 627.088 682.405 627.172 682.563 627.34C682.722 627.499 682.801 627.69 682.801 627.914C682.801 628.138 682.722 628.329 682.563 628.488C682.405 628.647 682.213 628.726 681.989 628.726ZM681.373 637V630H682.591V637H681.373ZM685.303 634.06C685.425 634.685 685.709 635.171 686.157 635.516C686.615 635.861 687.175 636.034 687.837 636.034C688.761 636.034 689.433 635.693 689.853 635.012L690.889 635.6C690.208 636.655 689.181 637.182 687.809 637.182C686.699 637.182 685.793 636.837 685.093 636.146C684.403 635.446 684.057 634.564 684.057 633.5C684.057 632.445 684.398 631.568 685.079 630.868C685.761 630.168 686.643 629.818 687.725 629.818C688.752 629.818 689.587 630.182 690.231 630.91C690.885 631.629 691.211 632.497 691.211 633.514C691.211 633.691 691.197 633.873 691.169 634.06H685.303ZM687.725 630.966C687.072 630.966 686.531 631.153 686.101 631.526C685.672 631.89 685.406 632.38 685.303 632.996H689.979C689.877 632.333 689.615 631.829 689.195 631.484C688.775 631.139 688.285 630.966 687.725 630.966ZM693.388 631.89C693.388 632.161 693.523 632.38 693.794 632.548C694.065 632.707 694.391 632.837 694.774 632.94C695.157 633.033 695.539 633.145 695.922 633.276C696.305 633.397 696.631 633.612 696.902 633.92C697.173 634.219 697.308 634.606 697.308 635.082C697.308 635.717 697.061 636.225 696.566 636.608C696.081 636.991 695.455 637.182 694.69 637.182C694.009 637.182 693.425 637.033 692.94 636.734C692.455 636.435 692.109 636.039 691.904 635.544L692.954 634.942C693.066 635.278 693.276 635.544 693.584 635.74C693.892 635.936 694.261 636.034 694.69 636.034C695.091 636.034 695.423 635.959 695.684 635.81C695.945 635.651 696.076 635.409 696.076 635.082C696.076 634.811 695.941 634.597 695.67 634.438C695.399 634.27 695.073 634.139 694.69 634.046C694.307 633.943 693.925 633.827 693.542 633.696C693.159 633.565 692.833 633.351 692.562 633.052C692.291 632.753 692.156 632.371 692.156 631.904C692.156 631.297 692.389 630.798 692.856 630.406C693.332 630.014 693.925 629.818 694.634 629.818C695.203 629.818 695.707 629.949 696.146 630.21C696.594 630.462 696.93 630.817 697.154 631.274L696.132 631.848C695.88 631.251 695.381 630.952 694.634 630.952C694.289 630.952 693.995 631.036 693.752 631.204C693.509 631.363 693.388 631.591 693.388 631.89Z" fill="#F0F0F0" fill-opacity="0.7"/>
<path d="M899.332 620.334H912.665M912.665 620.334V633.667M912.665 620.334L899.332 633.667" stroke="#FF6E1F" stroke-width="2" stroke-linecap="round" stroke-linejoin="round"/>
<g filter="url(#filter7_f_285_4231)">
<ellipse cx="1095.85" cy="615.23" rx="110.396" ry="90.5634" transform="rotate(25.8647 1095.85 615.23)" fill="#FF6E1F" fill-opacity="0.28"/>
</g>
<g filter="url(#filter8_f_285_4231)">
<ellipse cx="548.692" cy="515.146" rx="110.396" ry="9.98582" transform="rotate(25.8647 548.692 515.146)" fill="#D9D9D9"/>
</g>
</g>
<circle cx="562.5" cy="264.5" r="36" fill="white" fill-opacity="0.06" stroke="url(#paint5_linear_285_4231)"/>
<path fill-rule="evenodd" clip-rule="evenodd" d="M547.918 264.499C547.918 272.549 554.451 279.083 562.501 279.083C570.551 279.083 577.085 272.549 577.085 264.499C577.085 256.449 570.551 249.916 562.501 249.916C554.451 249.916 547.918 256.449 547.918 264.499ZM551.199 264.499C551.199 262.516 551.724 260.576 552.701 258.87C552.993 258.345 553.664 258.17 554.189 258.462L563.041 263.551C563.566 263.858 563.741 264.514 563.449 265.039C563.143 265.564 562.487 265.739 561.962 265.447L557.718 263.012C557.572 263.493 557.47 263.989 557.47 264.499C557.47 267.27 559.73 269.531 562.501 269.531C565.272 269.531 567.533 267.27 567.533 264.499C567.533 261.729 565.272 259.468 562.501 259.468C561.758 259.468 561.028 259.629 560.358 259.949C559.803 260.212 559.162 259.979 558.899 259.424C558.637 258.885 558.87 258.229 559.424 257.966C560.387 257.514 561.422 257.281 562.501 257.281C566.483 257.281 569.72 260.518 569.72 264.499C569.72 268.481 566.483 271.718 562.501 271.718C558.52 271.718 555.283 268.481 555.283 264.499C555.283 263.61 555.458 262.72 555.778 261.889L554.101 260.941C553.635 262.064 553.387 263.274 553.387 264.499C553.387 269.531 557.47 273.614 562.501 273.614C567.533 273.614 571.616 269.531 571.616 264.499C571.616 259.468 567.533 255.385 562.501 255.385C560.518 255.385 558.622 256.012 557.033 257.208C556.551 257.572 555.866 257.47 555.501 256.989C555.137 256.508 555.239 255.822 555.72 255.458C557.689 253.985 560.037 253.197 562.501 253.197C568.728 253.197 573.803 258.272 573.803 264.499C573.803 270.726 568.728 275.801 562.501 275.801C556.274 275.801 551.199 270.726 551.199 264.499Z" fill="url(#paint6_linear_285_4231)"/>
<defs>
<filter id="filter0_i_285_4231" x="754" y="63" width="392" height="309" filterUnits="userSpaceOnUse" color-interpolation-filters="sRGB">
<feFlood flood-opacity="0" result="BackgroundImageFix"/>
<feBlend mode="normal" in="SourceGraphic" in2="BackgroundImageFix" result="shape"/>
<feColorMatrix in="SourceAlpha" type="matrix" values="0 0 0 0 0 0 0 0 0 0 0 0 0 0 0 0 0 0 127 0" result="hardAlpha"/>
<feOffset/>
<feGaussianBlur stdDeviation="13.15"/>
<feComposite in2="hardAlpha" operator="arithmetic" k2="-1" k3="1"/>
<feColorMatrix type="matrix" values="0 0 0 0 1 0 0 0 0 1 0 0 0 0 1 0 0 0 0.1 0"/>
<feBlend mode="normal" in2="shape" result="effect1_innerShadow_285_4231"/>
</filter>
<filter id="filter1_f_285_4231" x="762.227" y="-8.43262" width="398.871" height="298" filterUnits="userSpaceOnUse" color-interpolation-filters="sRGB">
<feFlood flood-opacity="0" result="BackgroundImageFix"/>
<feBlend mode="normal" in="SourceGraphic" in2="BackgroundImageFix" result="shape"/>
<feGaussianBlur stdDeviation="50" result="effect1_foregroundBlur_285_4231"/>
</filter>
<filter id="filter2_f_285_4231" x="1050.26" y="109.146" width="398.871" height="298" filterUnits="userSpaceOnUse" color-interpolation-filters="sRGB">
<feFlood flood-opacity="0" result="BackgroundImageFix"/>
<feBlend mode="normal" in="SourceGraphic" in2="BackgroundImageFix" result="shape"/>
<feGaussianBlur stdDeviation="50" result="effect1_foregroundBlur_285_4231"/>
</filter>
<filter id="filter3_i_285_4231" x="0" y="63" width="392" height="309" filterUnits="userSpaceOnUse" color-interpolation-filters="sRGB">
<feFlood flood-opacity="0" result="BackgroundImageFix"/>
<feBlend mode="normal" in="SourceGraphic" in2="BackgroundImageFix" result="shape"/>
<feColorMatrix in="SourceAlpha" type="matrix" values="0 0 0 0 0 0 0 0 0 0 0 0 0 0 0 0 0 0 127 0" result="hardAlpha"/>
<feOffset/>
<feGaussianBlur stdDeviation="13.15"/>
<feComposite in2="hardAlpha" operator="arithmetic" k2="-1" k3="1"/>
<feColorMatrix type="matrix" values="0 0 0 0 1 0 0 0 0 1 0 0 0 0 1 0 0 0 0.1 0"/>
<feBlend mode="normal" in2="shape" result="effect1_innerShadow_285_4231"/>
</filter>
<filter id="filter4_f_285_4231" x="8.22656" y="-8.43262" width="398.871" height="298" filterUnits="userSpaceOnUse" color-interpolation-filters="sRGB">
<feFlood flood-opacity="0" result="BackgroundImageFix"/>
<feBlend mode="normal" in="SourceGraphic" in2="BackgroundImageFix" result="shape"/>
<feGaussianBlur stdDeviation="50" result="effect1_foregroundBlur_285_4231"/>
</filter>
<filter id="filter5_f_285_4231" x="296.258" y="109.146" width="398.871" height="298" filterUnits="userSpaceOnUse" color-interpolation-filters="sRGB">
<feFlood flood-opacity="0" result="BackgroundImageFix"/>
<feBlend mode="normal" in="SourceGraphic" in2="BackgroundImageFix" result="shape"/>
<feGaussianBlur stdDeviation="50" result="effect1_foregroundBlur_285_4231"/>
</filter>
<filter id="filter6_i_285_4231" x="445" y="458" width="509" height="222" filterUnits="userSpaceOnUse" color-interpolation-filters="sRGB">
<feFlood flood-opacity="0" result="BackgroundImageFix"/>
<feBlend mode="normal" in="SourceGraphic" in2="BackgroundImageFix" result="shape"/>
<feColorMatrix in="SourceAlpha" type="matrix" values="0 0 0 0 0 0 0 0 0 0 0 0 0 0 0 0 0 0 127 0" result="hardAlpha"/>
<feOffset/>
<feGaussianBlur stdDeviation="13.15"/>
<feComposite in2="hardAlpha" operator="arithmetic" k2="-1" k3="1"/>
<feColorMatrix type="matrix" values="0 0 0 0 1 0 0 0 0 1 0 0 0 0 1 0 0 0 0.1 0"/>
<feBlend mode="normal" in2="shape" result="effect1_innerShadow_285_4231"/>
</filter>
<filter id="filter7_f_285_4231" x="788.91" y="320.556" width="613.871" height="589.347" filterUnits="userSpaceOnUse" color-interpolation-filters="sRGB">
<feFlood flood-opacity="0" result="BackgroundImageFix"/>
<feBlend mode="normal" in="SourceGraphic" in2="BackgroundImageFix" result="shape"/>
<feGaussianBlur stdDeviation="100" result="effect1_foregroundBlur_285_4231"/>
</filter>
<filter id="filter8_f_285_4231" x="349.258" y="366.146" width="398.871" height="298" filterUnits="userSpaceOnUse" color-interpolation-filters="sRGB">
<feFlood flood-opacity="0" result="BackgroundImageFix"/>
<feBlend mode="normal" in="SourceGraphic" in2="BackgroundImageFix" result="shape"/>
<feGaussianBlur stdDeviation="50" result="effect1_foregroundBlur_285_4231"/>
</filter>
<linearGradient id="paint0_linear_285_4231" x1="563.5" y1="228" x2="563.5" y2="2.18557e-08" gradientUnits="userSpaceOnUse">
<stop stop-color="white"/>
<stop offset="1" stop-color="white" stop-opacity="0"/>
</linearGradient>
<linearGradient id="paint1_linear_285_4231" x1="526" y1="265.5" x2="371" y2="265.5" gradientUnits="userSpaceOnUse">
<stop stop-color="white"/>
<stop offset="1" stop-color="white" stop-opacity="0"/>
</linearGradient>
<linearGradient id="paint2_linear_285_4231" x1="799.5" y1="63" x2="821" y2="166.5" gradientUnits="userSpaceOnUse">
<stop stop-color="#FF6E1F"/>
<stop offset="1" stop-color="white" stop-opacity="0"/>
</linearGradient>
<linearGradient id="paint3_linear_285_4231" x1="45.5" y1="63" x2="67" y2="166.5" gradientUnits="userSpaceOnUse">
<stop stop-color="#FF6E1F"/>
<stop offset="1" stop-color="white" stop-opacity="0"/>
</linearGradient>
<linearGradient id="paint4_linear_285_4231" x1="504.08" y1="458" x2="512.88" y2="534.557" gradientUnits="userSpaceOnUse">
<stop stop-color="#FF6E1F"/>
<stop offset="1" stop-color="white" stop-opacity="0"/>
</linearGradient>
<linearGradient id="paint5_linear_285_4231" x1="707.5" y1="305.5" x2="548.5" y2="265" gradientUnits="userSpaceOnUse">
<stop stop-color="white" stop-opacity="0.89"/>
<stop offset="1" stop-color="white" stop-opacity="0"/>
</linearGradient>
<linearGradient id="paint6_linear_285_4231" x1="562.501" y1="249.916" x2="562.501" y2="279.083" gradientUnits="userSpaceOnUse">
<stop stop-color="#FF6E1F"/>
<stop offset="1" stop-color="white"/>
</linearGradient>
<clipPath id="clip0_285_4231">
<rect width="392" height="309" fill="white" transform="translate(754 63)"/>
</clipPath>
<clipPath id="clip1_285_4231">
<rect width="392" height="309" fill="white" transform="translate(0 63)"/>
</clipPath>
<clipPath id="clip2_285_4231">
<rect width="509" height="224" fill="white" transform="translate(445 458)"/>
</clipPath>
</defs>
</svg>
